<?xml version="1.0" standalone="no"?>
<!DOCTYPE svg PUBLIC "-//W3C//DTD SVG 1.1//EN" "http://www.w3.org/Graphics/SVG/1.1/DTD/svg11.dtd" >
<svg xmlns="http://www.w3.org/2000/svg" xmlns:xlink="http://www.w3.org/1999/xlink" version="1.1">
<metadata>
Created by FontForge 20201107 at Tue Jan  1 00:00:00 1980
 By Unknown
Copyright (c) 2012 by Fernando Diaz (fer@ferfolio.com), with Reserved Font Name 'Fenix'.
</metadata>
<defs>
<font id="Fenix" horiz-adv-x="506" >
  <font-face 
    font-family="Fenix"
    font-weight="400"
    font-stretch="normal"
    units-per-em="1000"
    panose-1="2 0 5 3 0 0 0 2 0 3"
    ascent="800"
    descent="-200"
    x-height="450"
    cap-height="650"
    bbox="-16 -238 987 879"
    underline-thickness="58"
    underline-position="-140"
    unicode-range="U+0020-FB04"
  />
<missing-glyph horiz-adv-x="568" 
d="M186 469l-37 -37l98 -98l-99 -99l37 -37l99 98l99 -98l37 37l-99 99l98 98l-37 37l-98 -98zM50 0v680h468v-680h-468z" />
    <glyph glyph-name="ff" unicode="ff" horiz-adv-x="587" 
d="M607 610q-39 7 -77 7t-62 -12q-14 -30 -14 -125v-30h109l11 -12l-10 -38l-110 4v-343l94 -39l-6 -22h-239l-6 22l45 19q18 7 24.5 15t6.5 23v322l-193 3v-354l69 -28l-6 -22h-214l-6 22l45 19q18 7 24.5 15t6.5 23v324l-70 -1l-6 22l76 34q0 98 60 161q65 69 171 69
q64 0 143 -25q44 23 99 23q29 0 42 -6l7 -21zM180 450h193q0 98 40 158q-35 15 -97 15q-80 0 -117 -27q-19 -30 -19 -146z" />
    <glyph glyph-name="fi" unicode="fi" horiz-adv-x="552" 
d="M99 79v324l-70 -1l-6 22l76 34q2 99 58 164.5t156 65.5t160 -72l-60 -53l-18 5q-13 20 -42 37q-31 18 -79.5 18t-74.5 -21q-19 -30 -19 -152l264 8l20 -8v-396l79 -32l-6 -22h-224l-6 22l45 19q18 7 24.5 15t6.5 23v322l-203 3v-350l79 -32l-6 -22h-224l-6 22l45 19
q18 7 24.5 15t6.5 23z" />
    <glyph glyph-name="fl" unicode="fl" horiz-adv-x="554" 
d="M383 606q-46 12 -77.5 12t-61 -3.5t-45.5 -18.5q-19 -30 -19 -146h109l11 -12l-10 -38l-110 4v-350l79 -32l-6 -22h-224l-6 22l45 19q18 7 24.5 15t6.5 23v324l-70 -1l-6 22l76 34q0 96 60.5 160.5t137.5 68.5q10 1 38.5 1t72.5 -12l36 12l20 -8v-626l79 -32l-6 -22h-224
l-6 22l45 19q18 7 24.5 15t6.5 23v527z" />
    <glyph glyph-name="ffi" unicode="ffi" horiz-adv-x="826" 
d="M99 79v324l-70 -1l-6 22l76 34q0 98 60 161q65 69 171 69q64 0 143 -25q48 25 110 25q104 0 164 -72l-60 -53l-18 5q-13 20 -42 37q-31 18 -79.5 18t-74.5 -21q-19 -30 -19 -152l264 8l20 -8v-396l79 -32l-6 -22h-224l-6 22l45 19q18 7 24.5 15t6.5 23v322l-203 3v-350
l79 -32l-6 -22h-224l-6 22l45 19q18 7 24.5 15t6.5 23v322l-193 3v-354l69 -28l-6 -22h-214l-6 22l45 19q18 7 24.5 15t6.5 23zM180 450h193q0 98 40 158q-36 15 -97 15q-80 0 -117 -27q-19 -30 -19 -146z" />
    <glyph glyph-name="ffl" unicode="ffl" horiz-adv-x="828" 
d="M657 606q-46 12 -77.5 12t-61 -3.5t-45.5 -18.5q-19 -30 -19 -146h109l11 -12l-10 -38l-110 4v-350l79 -32l-6 -22h-224l-6 22l45 19q18 7 24.5 15t6.5 23v322l-193 3v-354l69 -28l-6 -22h-214l-6 22l45 19q18 7 24.5 15t6.5 23v324l-70 -1l-6 22l76 34q0 98 60 161
q65 69 170 69q68 0 153 -28q52 27 109 27t91 -11l36 12l20 -8v-626l79 -32l-6 -22h-224l-6 22l45 19q18 7 24.5 15t6.5 23v527zM180 450h193q0 93 47 155q-46 17 -115.5 17t-105.5 -26q-19 -30 -19 -146z" />
    <glyph glyph-name="fj" unicode="fj" horiz-adv-x="521" 
d="M99 79v324l-70 -1l-6 22l76 34q2 99 58 164.5t156 65.5t160 -72l-60 -53l-18 5q-13 20 -42 37q-31 18 -79.5 18t-74.5 -21q-19 -30 -19 -152l254 8l20 -8v-450q0 -80 -38.5 -140.5t-104.5 -97.5l-14 18q76 89 76 212v409l-193 3v-350l79 -32l-6 -22h-224l-6 22l45 19
q18 7 24.5 15t6.5 23z" />
    <glyph glyph-name="ffj" unicode="ffj" horiz-adv-x="795" 
d="M99 79v324l-70 -1l-6 22l76 34q0 98 60 161q65 69 171 69q64 0 143 -25q48 25 110 25q104 0 164 -72l-60 -53l-18 5q-13 20 -42 37q-31 18 -79.5 18t-74.5 -21q-19 -30 -19 -152l254 8l20 -8v-450q0 -80 -38.5 -140.5t-104.5 -97.5l-14 18q76 89 76 212v409l-193 3v-350
l79 -32l-6 -22h-224l-6 22l45 19q18 7 24.5 15t6.5 23v322l-193 3v-354l69 -28l-6 -22h-214l-6 22l45 19q18 7 24.5 15t6.5 23zM180 450h193q0 98 40 158q-36 15 -97 15q-80 0 -117 -27q-19 -30 -19 -146z" />
    <glyph glyph-name=".notdef" horiz-adv-x="568" 
d="M186 469l-37 -37l98 -98l-99 -99l37 -37l99 98l99 -98l37 37l-99 99l98 98l-37 37l-98 -98zM50 0v680h468v-680h-468z" />
    <glyph glyph-name=".null" horiz-adv-x="0" 
 />
    <glyph glyph-name="nonmarkingreturn" horiz-adv-x="333" 
 />
    <glyph glyph-name="space" unicode=" " horiz-adv-x="220" 
 />
    <glyph glyph-name="exclam" unicode="!" horiz-adv-x="245" 
d="M71 678l92 10l12 -11l-34 -486l-25 -4l-13 2zM84.5 7.5q-15.5 15.5 -15.5 39t15.5 39.5t39 16t39.5 -16t16 -39.5t-16 -39t-39.5 -15.5t-39 15.5z" />
    <glyph glyph-name="quotedbl" unicode="&#x22;" horiz-adv-x="321" 
d="M45 670l76 10l12 -11l-28 -207l-34 -4zM190 670l76 10l12 -11l-28 -207l-34 -4z" />
    <glyph glyph-name="numbersign" unicode="#" horiz-adv-x="599" 
d="M58 412l18 39h118l24 177l56 10l11 -11l-27 -176l119 2l23 175l56 10l11 -11l-27 -173l120 2l9 -12l-18 -47q-51 0 -119 1l-20 -147l119 2l9 -12l-17 -46q-51 0 -119 1l-22 -174l-57 -10l-10 11q13 91 26 173q-39 1 -118 1l-23 -175l-57 -10l-10 11l26 174q-56 1 -120 1
l-9 12l17 39h120l21 150q-56 1 -120 1zM250 399l-20 -150q41 1 119 1l20 148q-39 1 -119 1z" />
    <glyph glyph-name="dollar" unicode="$" horiz-adv-x="461" 
d="M319 540q-25 14 -90 14t-93 -33q-13 -16 -13 -40q0 -63 66 -85l112 -38q66 -22 97 -67t31 -91q0 -70 -57 -112q-46 -33 -113 -40l13 -125l-60 -10l-12 11l13 123q-65 3 -112.5 27.5t-70.5 51.5l59 95l24 -6l4 -82q45 -28 118 -28q103 0 114 68q1 7 1 13q0 60 -92 89
l-109 37q-48 16 -74.5 53.5t-26.5 88.5q0 69 46.5 108t115.5 46l-11 117l60 10l12 -11l-11 -115q87 -5 155 -70l-63 -91l-23 7z" />
    <glyph glyph-name="percent" unicode="%" horiz-adv-x="709" 
d="M456 164q0 -117 85 -117q32 0 54 11q18 39 18 94q0 118 -84 118q-32 0 -54 -11q-19 -40 -19 -95zM431.5 35q-37.5 35 -37.5 113.5t43.5 123.5t102.5 45t97.5 -39.5t38.5 -118t-43 -119t-103.5 -40.5t-98 35zM96 497q0 -117 85 -117q32 0 54 11q18 39 18 94q0 118 -84 118
q-32 0 -54 -11q-19 -40 -19 -95zM71.5 368q-37.5 35 -37.5 113.5t43.5 123.5t102.5 45t97.5 -39.5t38.5 -118t-43 -119t-103.5 -40.5t-98 35zM608 638l12 -11q-242 -307 -458 -600l-64 -15l-12 11q242 307 458 600z" />
    <glyph glyph-name="ampersand" unicode="&#x26;" horiz-adv-x="679" 
d="M453 115q28 32 28 74.5t-24.5 78t-58.5 43.5l-11 12l12 39q104 0 211 6l35 2l11 -12l-11 -52q-84 2 -155 3q54 -51 52.5 -115t-55.5 -117q33 -34 56 -43.5t40 -9.5t29 2l2 -26l-98 -40q-40 19 -91 73q-76 -41 -167.5 -41t-153.5 41t-62 118q0 58 34.5 102.5t95.5 90.5
q-45 59 -65 98t-20 79q0 66 50 101.5t118.5 35.5t112.5 -32q47 -34 47 -95q0 -76 -91 -144l-54 -40l94 -119q6 -7 22.5 -28.5t34 -43.5t32.5 -41zM168 82.5q42 -36.5 109 -36.5q59 0 113 24q-31 36 -102 126l-84 108q-28 -21 -52 -54q-26 -38 -26 -84.5t42 -83zM168 587
q-12 -16 -12 -45t20 -64.5t64 -91.5l51 42q51 42 51 87q0 35 -24 60q-28 30 -75 30t-75 -18z" />
    <glyph glyph-name="quotesingle" unicode="'" horiz-adv-x="176" 
d="M45 670l76 10l12 -11l-28 -207l-34 -4z" />
    <glyph glyph-name="parenleft" unicode="(" horiz-adv-x="285" 
d="M37 292q0 87 20.5 165t48 127t62.5 90q50 57 93 84l14 -17q-157 -179 -157 -446t157 -446l-14 -17q-20 13 -38 27.5t-55.5 56t-63 88.5t-46.5 124t-21 164z" />
    <glyph glyph-name="parenright" unicode=")" horiz-adv-x="285" 
d="M248 292q0 -87 -21 -164t-46.5 -124t-63 -88.5t-55.5 -56t-38 -27.5l-14 17q157 179 157 446t-157 446l14 17q43 -27 85.5 -76t70 -98t48 -127t20.5 -165z" />
    <glyph glyph-name="asterisk" unicode="*" horiz-adv-x="443" 
d="M203 688h37l15 -142l138 32l13 -33l-132 -61l73 -122l-29 -21l-96 105l-97 -105l-29 21l73 122l-132 61l13 33l138 -32z" />
    <glyph glyph-name="plus" unicode="+" horiz-adv-x="509" 
d="M30 309l12 45h183q1 63 1 189l45 12l12 -11v-190l184 2l11 -12l-11 -49q-88 0 -183 1l1 -188l-49 -11l-12 11q1 82 1 188q-88 1 -184 1z" />
    <glyph glyph-name="comma" unicode="," horiz-adv-x="211" 
d="M150.5 64.5q10.5 -25.5 10.5 -60t-29.5 -71.5t-72.5 -60l-16 18q57 45 57 90t-46 76l-3 20l56 26h20q13 -13 23.5 -38.5z" />
    <glyph glyph-name="hyphen" unicode="-" horiz-adv-x="398" 
d="M60 217l12 39q104 0 218 6l38 2l11 -12l-11 -52q-227 5 -257 5z" />
    <glyph glyph-name="period" unicode="." horiz-adv-x="214" 
d="M67.5 7.5q-15.5 15.5 -15.5 39t15.5 39.5t39 16t39.5 -16t16 -39.5t-16 -39t-39.5 -15.5t-39 15.5z" />
    <glyph glyph-name="slash" unicode="/" horiz-adv-x="416" 
d="M323 701l59 10l12 -11q-162 -383 -301 -721l-59 -10l-12 11q115 270 301 721z" />
    <glyph glyph-name="zero" unicode="0" horiz-adv-x="590" 
d="M190 572q-48 -75 -48 -219q0 -299 162 -299q54 0 97 24q48 75 48 219q0 299 -162 299q-54 0 -97 -24zM110 85q-61 93 -61 243.5t62.5 240t183 89.5t184 -93.5t63.5 -243t-65.5 -239.5t-185.5 -90t-181 93z" />
    <glyph glyph-name="one" unicode="1" horiz-adv-x="350" 
d="M147 91v454q-65 -6 -111 -14l-6 22l183 105l19 -8v-589l96 -39l-6 -22h-275l-6 22l75 31q18 7 24.5 15t6.5 23z" />
    <glyph glyph-name="two" unicode="2" horiz-adv-x="514" 
d="M281 287q66 85 66 156q0 141 -129 141q-54 0 -86 -15l-5 -84l-24 -7l-65 90q10 11 30.5 28t72 39.5t103.5 22.5q85 0 140.5 -52.5t55.5 -136.5q0 -117 -124 -249q-44 -46 -74.5 -74t-83.5 -75l236 2l47 86l30 -7l-10 -152h-416l-12 44q182 158 248 243z" />
    <glyph glyph-name="three" unicode="3" horiz-adv-x="490" 
d="M431 487q0 -52 -27 -93.5t-72 -67.5q49 -19 78.5 -59t29.5 -89q0 -77 -74.5 -131.5t-208.5 -54.5q-62 0 -94 8l-11 19l16 62q61 -16 137.5 -16t127.5 23q18 26 18 72.5t-28 86t-82 46.5q-21 -3 -44.5 -3t-45.5 7l-11 12l10 38q29 6 53 6h34q105 23 105 116q0 52 -34 85.5
t-95 33.5t-96 -15l-5 -84l-24 -7l-60 100q91 76 204 76q87 0 143 -48.5t56 -122.5z" />
    <glyph glyph-name="four" unicode="4" 
d="M402 172q-23 0 -23 -22l2 -150l-77 -8l-12 11q3 71 3 167h-270l-14 42l283 428l62 18l20 -8q0 -54 3 -405l92 3l11 -12l-11 -64h-69zM273 240q22 0 22 24l1 269l-195 -293h172z" />
    <glyph glyph-name="five" unicode="5" horiz-adv-x="466" 
d="M429 202q0 -86 -69.5 -148t-186.5 -62q-73 0 -123 25l-11 19l17 59q75 -32 134 -32t105 14q26 17 41.5 47.5t15.5 52.5t-2 35q-22 134 -262 134h-11l-11 12l13 292q134 0 266 6l44 2l11 -12l-13 -71q-153 4 -252 4l-7 -152q278 -13 299 -197q2 -15 2 -28z" />
    <glyph glyph-name="six" unicode="6" horiz-adv-x="511" 
d="M286 389q51 0 90 -17t61 -46q43 -57 43 -143.5t-62.5 -138.5t-155.5 -52q-118 0 -172 83q-44 69 -44 171q0 113 36.5 190t86.5 119q94 79 228 103l12 -33q-108 -39 -175 -101.5t-89 -175.5q61 41 141 41zM393 173q0 147 -139 147q-68 0 -117 -37q-1 -18 -1 -35
q0 -78 26 -130q33 -62 117 -62q48 1 85 15q29 35 29 102z" />
    <glyph glyph-name="seven" unicode="7" horiz-adv-x="458" 
d="M443 650l12 -44q-93 -151 -151 -290.5t-100 -314.5l-85 -9l-20 8q66 190 127.5 317t150.5 262l-273 -2l-47 -86l-30 7l10 152h406z" />
    <glyph glyph-name="eight" unicode="8" horiz-adv-x="523" 
d="M117.5 608.5q56.5 49.5 143.5 49.5t142 -45.5t55 -113.5q0 -51 -32.5 -93t-89.5 -67q140 -59 140 -174q0 -76 -59.5 -124.5t-157.5 -48.5t-154 43t-56 110.5t39.5 111.5t89.5 66q-55 22 -86 64.5t-31 96.5q0 75 56.5 124.5zM133 166q0 -55 37.5 -83.5t101 -28.5t105.5 25
q19 26 19 72t-31 77.5t-125 68.5q-107 -54 -107 -131zM341 569q-33 27 -87.5 27t-93.5 -23q-19 -29 -19 -72t25.5 -72.5t105.5 -63.5q102 52 102 127q0 50 -33 77z" />
    <glyph glyph-name="nine" unicode="9" horiz-adv-x="509" 
d="M226 262q-99 0 -147 57.5t-48 143t62.5 140.5t154.5 55q114 0 168 -84q47 -71 47 -178q0 -98 -27 -165t-60 -105t-79 -66q-78 -47 -183 -68l-12 33q53 21 89.5 40.5t75.5 51.5q78 64 100 187q-62 -42 -141 -42zM153.5 366.5q35.5 -35.5 100 -35.5t121.5 37q1 17 1 33
q0 193 -148 193q-47 0 -79 -15q-31 -38 -31 -107.5t35.5 -105z" />
    <glyph glyph-name="colon" unicode=":" horiz-adv-x="228" 
d="M74.5 363.5q-15.5 15.5 -15.5 39t15.5 39.5t39 16t39.5 -16t16 -39.5t-16 -39t-39.5 -15.5t-39 15.5zM74.5 7.5q-15.5 15.5 -15.5 39t15.5 39.5t39 16t39.5 -16t16 -39.5t-16 -39t-39.5 -15.5t-39 15.5z" />
    <glyph glyph-name="semicolon" unicode=";" horiz-adv-x="235" 
d="M164.5 64.5q10.5 -25.5 10.5 -60t-29.5 -71.5t-72.5 -60l-16 18q57 45 57 90t-46 76l-3 20l56 26h20q13 -13 23.5 -38.5zM80.5 363.5q-15.5 15.5 -15.5 39t15.5 39.5t39 16t39.5 -16t16 -39.5t-16 -39t-39.5 -15.5t-39 15.5z" />
    <glyph glyph-name="less" unicode="&#x3c;" horiz-adv-x="447" 
d="M37 342l324 203l15 -7l14 -39l-275 -184l271 -182l1 -16l-26 -32l-331 207v17z" />
    <glyph glyph-name="equal" unicode="=" horiz-adv-x="536" 
d="M65 389l12 45l385 2l11 -12l-11 -49q-355 2 -386 2zM65 229l12 45l385 2l11 -12l-11 -49q-355 2 -386 2z" />
    <glyph glyph-name="greater" unicode="&#x3e;" horiz-adv-x="447" 
d="M410 288l-324 -203l-15 7l-14 39l275 184l-271 182l-1 16l26 32l331 -207v-17z" />
    <glyph glyph-name="question" unicode="?" horiz-adv-x="392" 
d="M245 391q38 32 38 92.5t-33 89.5q-32 12 -94 12t-115 -17l-11 54l11 18q36 18 97 18q96 0 159.5 -49t63.5 -127.5t-48 -125.5t-142 -88l-8 -86l-38 -2l-14 138q96 41 134 73zM95 48q0 24 15.5 39.5t39.5 15.5t39.5 -16t15.5 -39t-16 -39t-39.5 -16t-39 15.5t-15.5 39.5z
" />
    <glyph glyph-name="at" unicode="@" horiz-adv-x="974" 
d="M692 450q-38 -344 -38 -363t17 -33.5t46 -14.5q68 0 105.5 71t37.5 172q0 151 -86 245.5t-235 94.5q-174 0 -293 -124t-119 -323q0 -168 88.5 -259.5t230.5 -91.5q117 0 225 56l15 -29q-16 -13 -41 -28t-89 -35.5t-124 -20.5t-111.5 12t-103 40.5t-90.5 72t-63 112
t-24 159t29 174t79.5 145t117.5 106.5q132 90 300 90t273 -103.5t105 -276.5q0 -81 -24.5 -143.5t-63.5 -96.5q-79 -66 -162 -66q-43 0 -72 18.5t-39 49.5q-28 -28 -69.5 -48t-82.5 -20q-68 0 -103 54.5t-35 138.5q0 113 61 193t171 80q55 0 109 -13l39 13zM607 380
q-40 19 -87 19t-90 -15q-27 -30 -40.5 -81t-13.5 -113.5t26 -98t69 -35.5q58 0 106 50z" />
    <glyph glyph-name="A" unicode="A" horiz-adv-x="636" 
d="M467 70q0 6 -3 13l-45 127h-232l-53 -153l86 -35l-6 -22h-221l-6 22l55 23q17 7 21.5 13t11.5 25l200 557l61 18l20 -8l215 -596l78 -32l-6 -22h-245l-6 22l55 23q20 8 20 25zM302 542l-98 -281h197z" />
    <glyph glyph-name="B" unicode="B" horiz-adv-x="617" 
d="M120 83v510l-86 35l6 22q195 8 256 8q249 0 249 -169q0 -101 -91 -150q121 -42 121 -167q0 -45 -17.5 -78.5t-44.5 -52.5t-67 -31q-66 -18 -136 -18t-270 8l-6 22l55 23q18 7 24.5 15t6.5 23zM329 305h-97q-27 0 -27 -25v-227q26 -4 103 -4t135 18q39 30 39 98
q0 140 -153 140zM314 603h-82q-27 0 -27 -25v-218q26 -4 94 -4t117 20q36 27 36 88.5t-31.5 100t-106.5 38.5z" />
    <glyph glyph-name="C" unicode="C" horiz-adv-x="591" 
d="M350 -8q-133 0 -218.5 87t-85.5 245t93 246t223 88q93 0 144 -41q36 -28 49 -50l-65 -90l-24 7l-5 94q-46 16 -116.5 16t-119.5 -22q-90 -84 -90 -238q0 -135 70 -207.5t177 -72.5q81 0 167 43l15 -29q-26 -26 -82.5 -51t-131.5 -25z" />
    <glyph glyph-name="D" unicode="D" horiz-adv-x="706" 
d="M120 83v510l-86 35l6 22q226 8 284 8q334 0 334 -342q0 -178 -94.5 -251t-298.5 -73q-25 0 -225 8l-6 22l55 23q18 7 24.5 15t6.5 23zM339 603h-107q-27 0 -27 -25v-525q39 -4 100 -4q132 0 198 43q62 76 62 214.5t-58 217.5t-168 79z" />
    <glyph glyph-name="E" unicode="E" horiz-adv-x="545" 
d="M205 568v-216q95 0 193 9l32 3l11 -12l-11 -56q-119 7 -225 7v-251l217 4l48 88l30 -7v-137h-460l-6 22l55 23q18 7 24.5 15t6.5 23v510l-86 35l6 22h455v-137l-30 -7l-48 88l-185 4q-27 0 -27 -30z" />
    <glyph glyph-name="F" unicode="F" horiz-adv-x="527" 
d="M205 306v-248l89 -36l-6 -22h-248l-6 22l55 23q18 7 24.5 15t6.5 23v510l-86 35l6 22h465v-137l-30 -7l-48 88l-195 4q-27 0 -27 -31v-208h160l32 69l22 -6v-186l-22 -6l-19 45q-7 18 -15 24.5t-23 6.5h-135z" />
    <glyph glyph-name="G" unicode="G" horiz-adv-x="663" 
d="M573 200v-145q-89 -63 -220 -63t-219.5 85t-88.5 241q0 86 29 153.5t78 106.5q99 80 234.5 80t194.5 -91l-65 -90l-24 7l-5 94q-46 16 -123.5 16t-126.5 -22q-103 -91 -103 -234t73.5 -213.5t191.5 -70.5q30 0 55 4q37 7 37 37v130l-86 32l6 22h224l7 -26l-38 -15
q-18 -7 -24.5 -15t-6.5 -23z" />
    <glyph glyph-name="H" unicode="H" horiz-adv-x="733" 
d="M613 567v-510l86 -35l-6 -22h-245l-6 22l55 23q18 7 24.5 15t6.5 23v221h-323v-247l86 -35l-6 -22h-245l-6 22l55 23q18 7 24.5 15t6.5 23v510l-86 35l6 22h245l6 -22l-55 -23q-18 -7 -24.5 -15t-6.5 -23v-206h323v232l-86 35l6 22h245l6 -22l-55 -23q-18 -7 -24.5 -15
t-6.5 -23z" />
    <glyph glyph-name="I" unicode="I" horiz-adv-x="325" 
d="M205 567v-510l86 -35l-6 -22h-245l-6 22l55 23q18 7 24.5 15t6.5 23v510l-86 35l6 22h245l6 -22l-55 -23q-18 -7 -24.5 -15t-6.5 -23z" />
    <glyph glyph-name="J" unicode="J" horiz-adv-x="308" 
d="M196 567v-575q0 -151 -142 -230l-18 23q41 48 58 94.5t17 120.5v593l-86 35l6 22h245l6 -22l-55 -23q-18 -7 -24.5 -15t-6.5 -23z" />
    <glyph glyph-name="K" unicode="K" horiz-adv-x="642" 
d="M492 0l-266 341l248 252l-86 35l6 22h228l6 -22l-55 -23q-8 -3 -11 -5t-6.5 -3t-7 -4.5t-5.5 -5t-8.5 -8.5t-11.5 -12l-203 -207l235 -303l86 -35l-6 -22h-143zM205 567v-510l86 -35l-6 -22h-245l-6 22l55 23q18 7 24.5 15t6.5 23v510l-86 35l6 22h245l6 -22l-55 -23
q-18 -7 -24.5 -15t-6.5 -23z" />
    <glyph glyph-name="L" unicode="L" horiz-adv-x="520" 
d="M205 567v-515l222 4l48 88l30 -7v-137h-465l-6 22l55 23q18 7 24.5 15t6.5 23v510l-86 35l6 22h245l6 -22l-55 -23q-18 -7 -24.5 -15t-6.5 -23z" />
    <glyph glyph-name="M" unicode="M" horiz-adv-x="877" 
d="M744 567l23 -510l86 -35l-6 -22h-237l-6 22l45 22q32 15 31 39l-22 490l-192 -553l-62 -20l-19 10l-187 562l-28 -515l76 -35l-6 -22h-210l-6 22l55 23q25 11 29 22q1 5 2 16l25 510l-86 35l6 22h202l13 -10l169 -522l177 532h208l6 -22l-55 -23q-32 -13 -31 -38z" />
    <glyph glyph-name="N" unicode="N" horiz-adv-x="740" 
d="M628 567v-567l-72 -8l-370 526v-461l86 -35l-6 -22h-226l-6 22l55 23q18 7 24.5 15t6.5 23v510l-86 35l6 22h167l354 -504v-2l1 2v447l-86 35l6 22h226l6 -22l-55 -23q-18 -7 -24.5 -15t-6.5 -23z" />
    <glyph glyph-name="O" unicode="O" horiz-adv-x="705" 
d="M201 557q-62 -85 -62 -219t56.5 -209t163.5 -75q89 0 145 37q62 76 62 214.5t-56.5 213.5t-162.5 75q-88 0 -146 -37zM46 320q0 84 26 150t70 106q92 82 221.5 82t212.5 -88t83 -242q0 -84 -26 -149.5t-71 -105.5q-90 -81 -220 -81t-213 87t-83 241z" />
    <glyph glyph-name="P" unicode="P" horiz-adv-x="544" 
d="M273 273q-22 0 -68 2v-214l96 -39l-6 -22h-255l-6 22l55 23q18 7 24.5 15t6.5 23v510l-86 35l6 22q159 8 222 8q131 0 194.5 -46.5t63.5 -143.5q0 -195 -247 -195zM279 603h-47q-27 0 -27 -25v-248q26 -4 60 -4q70 0 126 23q36 28 36 103q0 151 -148 151z" />
    <glyph glyph-name="Q" unicode="Q" horiz-adv-x="706" 
d="M46 320q0 84 26 150t70 106q92 82 222 82t212.5 -88.5t82.5 -249.5q0 -59 -13 -106.5t-30 -76t-47.5 -54t-49.5 -36.5t-53 -28l28 -10q43 -12 93 -44t94 -59q53 -34 84.5 -34t70.5 18l14 -21l-100 -67q-47 3 -83 22.5t-110.5 76t-111 70t-111.5 15.5q-2 7 -6 7h-10
q-123 9 -197.5 95t-74.5 232zM201 557q-62 -85 -62 -219t56.5 -209t163.5 -75q89 0 145 37q62 76 62 214.5t-56.5 213.5t-162.5 75q-88 0 -146 -37z" />
    <glyph glyph-name="R" unicode="R" horiz-adv-x="600" 
d="M263 282h-58v-225l83 -35l-6 -22h-242l-6 22l55 23q18 7 24.5 15t6.5 23v510l-86 35l6 22q165 8 226 8q259 0 259 -186q0 -147 -158 -182q11 -10 20 -29q68 -139 101 -180t102 -56l-7 -25l-112 -8q-54 44 -81.5 87t-90.5 176q-13 27 -36 27zM205 578v-245h65q74 0 116 17
q22 16 34 37.5t12 63.5q0 65 -34.5 108.5t-113.5 43.5h-52q-27 0 -27 -25z" />
    <glyph glyph-name="S" unicode="S" horiz-adv-x="517" 
d="M363 578q-33 18 -102.5 18t-113.5 -37q-12 -19 -12 -55q0 -77 82 -108l130 -50q128 -49 128 -177q0 -87 -61 -132t-158 -45q-134 0 -221 82l64 109l24 -7l15 -96q37 -26 107 -26q149 0 149 101q0 41 -26 67t-81 47l-115 44q-117 45 -117 162q0 88 62 135.5t158 47.5
q117 0 188 -82l-71 -99l-24 7z" />
    <glyph glyph-name="T" unicode="T" horiz-adv-x="543" 
d="M524 650v-137l-24 -7l-50 93l-109 3q-13 1 -20 -7t-7 -19v-519l86 -35l-6 -22h-245l-6 22l55 23q18 7 24.5 15t6.5 23v520l-136 -4l-50 -93l-24 7v137h505z" />
    <glyph glyph-name="U" unicode="U" horiz-adv-x="699" 
d="M599 567v-312q0 -141 -58 -202t-181 -61q-261 0 -261 260v345l-76 31l6 22h235l1 -22l-50 -23q-18 -7 -24.5 -15t-6.5 -23v-310q0 -97 46.5 -150t125.5 -53t127 24q50 53 50 174v341l-86 35l6 22h216l6 -22l-45 -19q-31 -12 -31 -42z" />
    <glyph glyph-name="V" unicode="V" horiz-adv-x="638" 
d="M170 580q0 -6 3 -13l162 -459l168 485l-86 35l6 22h221l6 -22l-55 -23q-17 -7 -21.5 -13t-11.5 -25l-200 -557l-61 -18l-20 8l-215 596l-78 32l6 22h245l6 -22l-55 -23q-20 -8 -20 -25z" />
    <glyph glyph-name="W" unicode="W" horiz-adv-x="976" 
d="M174 580q0 -6 2 -13l133 -459l152 522l61 20l19 -10l157 -532l141 485l-86 35l6 22h222l6 -22l-55 -23q-17 -7 -22 -13.5t-11 -24.5l-169 -557l-74 -18l-20 8l-148 499l-141 -489l-77 -18l-20 8l-181 596l-78 32l6 22h245l6 -22l-55 -23q-19 -8 -19 -25z" />
    <glyph glyph-name="X" unicode="X" horiz-adv-x="646" 
d="M445 45q14 6 14 16t-9 22l-137 190l-157 -216l86 -35l-6 -22h-226l-6 22l55 23q17 7 23 14t11 15t6 9l176 243l-194 270l-72 32l6 22h245l6 -22l-55 -23q-14 -6 -14 -16t9 -22l129 -180l145 206l-86 35l6 22h226l6 -22l-55 -23q-12 -5 -15 -7.5t-4.5 -3.5t-5 -5.5
t-4.5 -5.5t-5 -7.5t-6 -8.5l-164 -233l202 -280l72 -32l-6 -22h-245l-6 22z" />
    <glyph glyph-name="Y" unicode="Y" horiz-adv-x="598" 
d="M258 83v215l-198 298l-70 32l6 22h241l6 -22l-47 -23q-22 -10 -22 -24q0 -7 5 -14l136 -202l148 228l-86 35l6 22h224l6 -22l-55 -23q-19 -8 -27.5 -17.5t-15.5 -20.5l-172 -266v-244l86 -35l-6 -22h-245l-6 22l55 23q18 7 24.5 15t6.5 23z" />
    <glyph glyph-name="Z" unicode="Z" horiz-adv-x="553" 
d="M508 0h-477l-6 29l374 569l-264 -2l-49 -90l-30 7v137h452l6 -33l-369 -565l284 2l49 90l30 -7v-137z" />
    <glyph glyph-name="bracketleft" unicode="[" horiz-adv-x="288" 
d="M152 295q0 -205 2 -410l116 -9v-36l-179 -8l-12 11q3 226 3 452t-3 452l12 11l179 -8v-36l-116 -9q-2 -205 -2 -410z" />
    <glyph glyph-name="backslash" unicode="\" horiz-adv-x="407" 
d="M73 709l16 -8q41 -99 99 -239q124 -301 197 -470l-50 -23l-16 8q-280 673 -296 709z" />
    <glyph glyph-name="bracketright" unicode="]" horiz-adv-x="288" 
d="M136 295q0 205 -2 410l-116 9v36l179 8l12 -11q-3 -226 -3 -452t3 -452l-12 -11l-179 8v36l116 9q2 205 2 410z" />
    <glyph glyph-name="asciicircum" unicode="^" horiz-adv-x="449" 
d="M40 413l163 245h42l165 -243l-34 -26l-151 172l-151 -173z" />
    <glyph glyph-name="underscore" unicode="_" horiz-adv-x="596" 
d="M57 12l12 39h456l11 -12l-11 -47q-356 8 -457 8z" />
    <glyph glyph-name="grave" unicode="`" horiz-adv-x="293" 
d="M240 552l-211 77l43 55l20 4l161 -116z" />
    <glyph glyph-name="a" unicode="a" horiz-adv-x="431" 
d="M138 74q23 -17 53.5 -17t81.5 17l2 116q-128 -7 -159 -44q-1 -5 -1 -13q0 -42 23 -59zM274 30q-65 -38 -119 -38t-85.5 34.5t-31.5 88t52.5 82.5t184.5 37l1 65q1 45 -21.5 72.5t-61.5 27.5t-68 -9l-8 -76l-24 -7l-55 78q22 25 66 49t105 24q149 0 149 -181l-5 -223
l69 -24l-6 -22l-85 -16l-20 8l-32 28z" />
    <glyph glyph-name="b" unicode="b" horiz-adv-x="502" 
d="M144 420q65 38 146 38t127.5 -67t46.5 -172.5t-63.5 -166t-161.5 -60.5q-41 0 -95.5 9.5t-78.5 21.5v585l-70 11l-6 22l135 47l20 -8v-260zM146 70q40 -14 98.5 -14t97.5 15q37 49 37 143q0 175 -132 175q-49 0 -101 -13v-306z" />
    <glyph glyph-name="c" unicode="c" horiz-adv-x="434" 
d="M312 390q-22 6 -70 6t-82 -17q-38 -48 -38 -137t42 -137.5t108 -48.5t123 26l14 -26q-12 -12 -29 -24.5t-54.5 -26t-78.5 -13.5q-93 0 -151 61.5t-58 171.5t63.5 171.5t154.5 61.5q45 0 80 -17t47 -30t19 -26l-58 -78l-24 7z" />
    <glyph glyph-name="d" unicode="d" horiz-adv-x="522" 
d="M358 30q-65 -38 -146 -38t-127.5 67t-46.5 172.5t63.5 166t161.5 60.5q43 0 79 -6l14 -3v159l-70 11l-6 22l137 47l20 -8v-626l69 -32l-6 -22l-95 -8l-14 6l-29 30zM356 380q-40 14 -98.5 14t-97.5 -15q-37 -49 -37 -143q0 -175 132 -175q49 0 101 13v306z" />
    <glyph glyph-name="e" unicode="e" horiz-adv-x="455" 
d="M101 396.5q63 61.5 147 61.5t127 -49.5t43 -135.5v-33l-15 -15h-280q2 -77 43 -123t105.5 -46t123.5 26l14 -26q-12 -12 -29 -24.5t-54.5 -26t-78.5 -13.5q-93 0 -151 61.5t-58 171.5t63 171.5zM237 394q-47 0 -77 -15q-12 -15 -23.5 -48t-12.5 -63l214 6q0 120 -101 120
z" />
    <glyph glyph-name="f" unicode="f" horiz-adv-x="313" 
d="M333 610q-39 7 -77 7t-62 -12q-14 -30 -14 -125v-30h109l11 -12l-10 -38l-110 4v-343l94 -39l-6 -22h-239l-6 22l45 19q18 7 24.5 15t6.5 23v324l-70 -1l-6 22l76 34q6 190 148 223q32 5 45 5q34 0 48 -6l7 -21z" />
    <glyph glyph-name="g" unicode="g" horiz-adv-x="446" 
d="M348 406q41 -44 41 -114.5t-49.5 -116t-127.5 -45.5q-20 0 -38 3q-27 -26 -27 -52q0 -9 14 -11.5t126 -12.5q63 -6 104.5 -38t41.5 -100t-59.5 -112.5t-155 -44.5t-147.5 35.5t-52 94.5q0 72 74 123q-16 18 -16 39.5t14 48t36 45.5q-42 20 -65.5 58t-23.5 88q0 74 49 120
t126 46q56 0 99 -26q41 51 69 72l43 -50l-6 -15q-57 -28 -70 -35zM133 -8q-37 -34 -37 -79.5t37.5 -69.5t102 -24t109.5 27q16 23 16 63t-25 53t-74 18q-67 7 -106 7q-10 1 -23 5zM116 293q0 -49 26 -76.5t72.5 -27.5t73.5 16q8 10 14.5 38t6.5 54q0 49 -26 76.5t-72.5 27.5
t-73.5 -16q-8 -10 -14.5 -38t-6.5 -54z" />
    <glyph glyph-name="h" unicode="h" horiz-adv-x="533" 
d="M370 293q0 51 -23.5 73.5t-75.5 22.5t-104 -13v-322l79 -32l-6 -22h-224l-6 22l45 19q18 7 24.5 15t6.5 23v529l-70 11l-6 22l135 47l20 -8v-260q69 38 142 38q144 0 144 -153v-251l79 -32l-6 -22h-224l-6 22l45 19q18 7 24.5 15t6.5 23v214z" />
    <glyph glyph-name="i" unicode="i" horiz-adv-x="271" 
d="M100 79v299l-70 11l-6 22l137 47l20 -8v-396l79 -32l-6 -22h-224l-6 22l45 19q18 7 24.5 15t6.5 23zM96.5 577.5q-15.5 15.5 -15.5 39t15.5 39.5t39 16t39.5 -16t16 -39.5t-16 -39t-39.5 -15.5t-39 15.5z" />
    <glyph glyph-name="j" unicode="j" horiz-adv-x="239" 
d="M170 0q0 -80 -38.5 -140.5t-104.5 -97.5l-14 18q76 89 76 212v386l-70 11l-6 22l137 47l20 -8v-450zM85.5 577.5q-15.5 15.5 -15.5 39t15.5 39.5t39 16t39.5 -16t16 -39.5t-16 -39t-39.5 -15.5t-39 15.5z" />
    <glyph glyph-name="k" unicode="k" horiz-adv-x="513" 
d="M381 0l-203 242l157 154l-71 32l6 22h202l6 -22l-45 -19q-24 -10 -60 -46l-107 -104l172 -205l76 -32l-6 -22h-127zM86 79v529l-70 11l-6 22l137 47l20 -8v-626l79 -32l-6 -22h-224l-6 22l45 19q18 7 24.5 15t6.5 23z" />
    <glyph glyph-name="l" unicode="l" horiz-adv-x="261" 
d="M90 79v529l-70 11l-6 22l137 47l20 -8v-626l79 -32l-6 -22h-224l-6 22l45 19q18 7 24.5 15t6.5 23z" />
    <glyph glyph-name="m" unicode="m" horiz-adv-x="831" 
d="M668 293q0 51 -23.5 73.5t-76.5 22.5t-113 -16q10 -33 10 -68v-251l79 -32l-6 -22h-224l-6 22l45 19q18 7 24.5 15t6.5 23v214q0 51 -23.5 73.5t-75.5 22.5t-104 -13v-322l79 -32l-6 -22h-224l-6 22l45 19q18 7 24.5 15t6.5 23v299l-70 11l-6 22l129 47l20 -8l2 -28l4 -2
q69 38 144 38t111 -45q88 45 167 45q148 0 148 -153v-251l79 -32l-6 -22h-224l-6 22l45 19q18 7 24.5 15t6.5 23v214z" />
    <glyph glyph-name="n" unicode="n" horiz-adv-x="547" 
d="M384 293q0 51 -23.5 73.5t-75.5 22.5t-104 -13v-322l79 -32l-6 -22h-224l-6 22l45 19q18 7 24.5 15t6.5 23v299l-70 11l-6 22l129 47l20 -8l2 -28l4 -2q69 38 142 38q144 0 144 -153v-251l79 -32l-6 -22h-224l-6 22l45 19q18 7 24.5 15t6.5 23v214z" />
    <glyph glyph-name="o" unicode="o" 
d="M123 236q0 -180 137 -180q50 0 86 15q37 48 37 143q0 180 -137 180q-50 0 -86 -15q-37 -48 -37 -143zM96 53q-58 61 -58 172.5t64 172t157 60.5t151 -61t58 -172.5t-64 -172t-157 -60.5t-151 61z" />
    <glyph glyph-name="p" unicode="p" horiz-adv-x="526" 
d="M307 458q88 0 134.5 -67.5t46.5 -172.5t-63.5 -165.5t-158.5 -60.5q-46 0 -96 9v-175l79 -32l-6 -22h-224l-6 22l45 19q18 7 24.5 15t6.5 23v527l-70 11l-6 22l129 47l20 -8l2 -28l4 -2q68 38 139 38zM170 70q40 -14 98.5 -14t97.5 15q37 49 37 143q0 175 -132 175
q-49 0 -101 -13v-306z" />
    <glyph glyph-name="q" unicode="q" 
d="M356 -149v178q-67 -37 -137 -37q-87 0 -134 67.5t-47 172.5t63.5 165.5t158.5 60.5q61 0 117 -13l41 13l19 -8v-624l79 -32l-6 -22h-224l-6 22l45 19q18 7 24.5 15t6.5 23zM356 380q-40 14 -98.5 14t-97.5 -15q-37 -49 -37 -143q0 -175 132 -175q49 0 101 13v306z" />
    <glyph glyph-name="r" unicode="r" horiz-adv-x="387" 
d="M292 392q-26 0 -61.5 -7.5t-49.5 -13.5v-317l89 -32l-6 -22h-234l-6 22l45 19q18 7 24.5 15t6.5 23v299l-70 11l-6 22l129 47l20 -8l4 -37l4 -2q14 11 57.5 27.5t64.5 19.5q21 -6 45 -25.5t33 -36.5l-65 -87l-24 7v76z" />
    <glyph glyph-name="s" unicode="s" horiz-adv-x="401" 
d="M267 394q-23 10 -70.5 10t-71.5 -24q-9 -14 -9 -33q0 -42 51 -61l102 -36q43 -15 69 -48.5t26 -78.5q0 -63 -48 -97t-112.5 -34t-108 21.5t-63.5 45.5l51 83l25 -7l4 -67q35 -20 89 -20q91 0 91 62q0 25 -16 40t-52 27l-92 30q-41 14 -63 46t-22 72q0 63 50 98t116 35
q40 0 75 -16q49 -21 66 -47l-55 -78l-24 7z" />
    <glyph glyph-name="t" unicode="t" horiz-adv-x="305" 
d="M86 89v313h-70l-6 22l76 34l44 93l37 -7v-94h119l11 -12l-10 -38l-120 4v-292q0 -37 15 -54.5t53 -17.5h57l5 -28q-63 -20 -111 -20t-74 27t-26 70z" />
    <glyph glyph-name="u" unicode="u" horiz-adv-x="534" 
d="M227 -8q-144 0 -144 153v233l-70 11l-6 22l137 47l20 -8v-293q0 -51 23.5 -73.5t75.5 -22.5t104 13v304l-70 11l-6 22l137 47l20 -8v-396l69 -24l-6 -22l-85 -16l-20 8l-32 28l-5 2q-69 -38 -142 -38z" />
    <glyph glyph-name="v" unicode="v" horiz-adv-x="512" 
d="M184 409q-18 -7 -18 -21t4 -25l99 -267l112 300l-71 32l6 22h194l6 -22l-49 -21q-19 -8 -27 -25q-3 -6 -8 -19l-143 -363l-46 -8l-20 8l-155 396l-71 32l6 22h220l6 -22z" />
    <glyph glyph-name="w" unicode="w" horiz-adv-x="754" 
d="M387 454l19 -8q101 -304 120 -354l97 304l-71 32l6 22h188l6 -22l-49 -21q-18 -7 -27 -25q-2 -6 -6 -19l-115 -363l-60 -8l-20 8q-45 126 -91 251q-31 -102 -80 -213l-17 -38l-60 -8l-20 8l-141 396l-71 32l6 22h220l6 -22l-45 -19q-30 -13 -14 -46l90 -271
q71 162 91 255l-37 96z" />
    <glyph glyph-name="x" unicode="x" horiz-adv-x="504" 
d="M394 373l-98 -135l128 -186l75 -30l-6 -22h-130l-126 181l-88 -127l76 -32l-6 -22h-205l-6 22l49 21q29 12 44 34l105 146l-118 173l-76 32l6 22h128l117 -171l84 117l-76 32l6 22h205l6 -22l-49 -21q-29 -12 -45 -34z" />
    <glyph glyph-name="y" unicode="y" horiz-adv-x="521" 
d="M181 409q-19 -8 -19 -21.5t5 -24.5l109 -257l112 290l-71 32l6 22h194l6 -22l-49 -21q-19 -8 -28 -25q-2 -6 -7 -19l-142 -351q-69 -170 -122 -250l-75 24l-8 20q105 113 141 193l-168 397l-71 32l6 22h220l6 -22z" />
    <glyph glyph-name="z" unicode="z" horiz-adv-x="429" 
d="M389 0h-355l-6 29l259 375l-167 -4l-48 -84l-24 7v117l10 10h325l6 -33l-256 -371l184 4l48 84l24 -7v-127z" />
    <glyph glyph-name="braceleft" unicode="{" horiz-adv-x="305" 
d="M167 78.5q-9 -73.5 -10.5 -96t-1.5 -45t7 -35.5q20 -11 49.5 -11t59.5 8l16 -45l-11 -19q-6 -3 -28 -3q-77 0 -124 60q-31 40 -31 106q0 20 10 98.5t10 109.5q0 13 -22.5 33t-45.5 34l-23 14v16q39 24 65 46t26 35q0 31 -9 104q-11 84 -11 104q0 65 33 108q45 58 122 58
q22 0 28 -3l11 -19l-16 -45q-30 8 -46 8t-29.5 -0.5t-33.5 -10.5q-7 -13 -7 -36q0 -45 12.5 -146.5t12.5 -116.5t-20.5 -39t-42.5 -40l-22 -15q6 -3 26 -19t31 -28q30 -29 28 -53q-4 -43 -13 -116.5z" />
    <glyph glyph-name="bar" unicode="|" horiz-adv-x="227" 
d="M144 321.5q0 -203.5 3 -419.5l-55 -10l-12 11q2 189 2 392.5t-2 422.5l55 10l12 -11q-3 -192 -3 -395.5z" />
    <glyph glyph-name="braceright" unicode="}" horiz-adv-x="305" 
d="M138 511.5q9 73.5 10.5 96t1.5 45t-7 35.5q-22 11 -50.5 11t-58.5 -8l-16 45l11 19q7 3 29 3q76 0 123 -60q31 -41 31 -106q0 -20 -10 -98.5t-10 -109.5q0 -13 22.5 -33t45.5 -34l23 -14v-16q-39 -24 -65 -46t-26 -35q0 -31 9 -104q11 -84 11 -104q0 -66 -33 -108
q-45 -58 -123 -58q-21 0 -27 3l-11 19l16 45q30 -8 46 -8t30.5 0.5t32.5 10.5q7 13 7 36q0 45 -12.5 146.5t-12.5 116.5t20.5 39t42.5 40l22 15q-6 3 -26 19t-32 28q-29 29 -27 53q4 43 13 116.5z" />
    <glyph glyph-name="asciitilde" unicode="~" horiz-adv-x="560" 
d="M334 332q42 -30 52 -32q18 4 35 27.5t28 59.5l48 -14l9 -21q-16 -35 -48 -60q-36 -30 -84.5 -30t-111.5 41q-30 19 -46 31q-26 19 -36 21q-18 -4 -35 -27.5t-28 -59.5l-48 14l-9 21q15 34 46 61q36 29 88.5 29t139.5 -61z" />
    <glyph glyph-name="uni00A0" unicode="&#xa0;" horiz-adv-x="220" 
 />
    <glyph glyph-name="exclamdown" unicode="&#xa1;" horiz-adv-x="227" 
d="M165 -228l-92 -10l-12 11l34 486l25 4l13 -2zM73.5 363.5q-15.5 15.5 -15.5 39t15.5 39.5t39 16t39.5 -16t16 -39.5t-16 -39t-39.5 -15.5t-39 15.5z" />
    <glyph glyph-name="cent" unicode="&#xa2;" horiz-adv-x="420" 
d="M290 472q-17 5 -61 5t-76 -15q-35 -51 -35 -130t38 -123t97 -44t114 23l14 -23q-49 -52 -136 -57l14 -133l-60 -10l-12 11l13 134q-73 10 -116 64t-43 144.5t45 144.5t116 66l-13 127l60 10l12 -11l-13 -123q39 -1 72 -16q51 -22 65 -48l-65 -83l-21 6z" />
    <glyph glyph-name="sterling" unicode="&#xa3;" horiz-adv-x="482" 
d="M452 18q-44 -25 -90.5 -25t-83.5 10q-101 27 -206 -7l-22 40q38 30 54 74.5t16 86.5q0 30 -8 113q-31 1 -62 1l-11 12l12 36h54q-7 53 -7 83q0 104 62 160t168 56q62 0 82 -10l11 -19l-16 -54q-48 13 -110 13t-94 -10q-33 -43 -33 -128q0 -27 6 -89l188 6l11 -12l-11 -49
q-97 1 -183 3q3 -36 3 -74.5t-6 -74.5q-9 -64 -51 -107q43 20 103 20t87.5 -4t49 -4t59.5 14l14 -4z" />
    <glyph glyph-name="currency" unicode="&#xa4;" horiz-adv-x="658" 
d="M144 199q-32 53 -32 125t33 124l-97 120l26 30l129 -90q58 40 128.5 40t125.5 -38l127 88l26 -30l-96 -118q32 -53 32 -123.5t-34 -125.5l98 -119l-26 -30l-130 89q-59 -39 -129 -39t-124 37l-127 -87l-26 30zM236 464q-39 -49 -39 -128t38 -124.5t104 -45.5q45 0 83 20
q39 49 39 128t-38 124.5t-104 45.5q-45 0 -83 -20z" />
    <glyph glyph-name="yen" unicode="&#xa5;" horiz-adv-x="673" 
d="M209 581q0 -7 5 -14l136 -202l148 228l-86 35l6 22h224l6 -22l-55 -23q-19 -8 -27.5 -17.5t-15.5 -20.5l-130 -199l122 2l10 -12l-10 -43h-414l-10 11l11 40h118l-152 230l-70 32l6 22h241l6 -22l-47 -23q-22 -10 -22 -24zM293 203l-164 1l-11 12l12 39h411l11 -12
l-11 -43q-74 1 -163 2v-145l86 -35l-6 -22h-245l-6 22l55 23q18 7 24.5 15t6.5 23v120zM347 358q1 -1 3 -1t4 2z" />
    <glyph glyph-name="brokenbar" unicode="&#xa6;" horiz-adv-x="224" 
d="M146 -97l-57 -10l-12 11q8 295 9 327l40 10l12 -11q2 -101 8 -327zM77 718l57 10l12 -11q-8 -295 -9 -327l-39 -10l-12 11q-1 63 -5 187t-4 140z" />
    <glyph glyph-name="section" unicode="&#xa7;" horiz-adv-x="420" 
d="M138 -14q0 95 -41 247t-41 212q0 105 65.5 159t177.5 54q59 0 79 -10l11 -19l-16 -58q-51 14 -116.5 14t-97.5 -10q-33 -43 -33 -116.5t32 -213.5t32 -215q0 -36 -5 -65l-37 2l-10 6v13zM282 474q0 -95 41 -247t41 -212q0 -105 -65.5 -159t-177.5 -54q-59 0 -79 10
l-11 19l16 58q51 -14 116.5 -14t97.5 10q33 43 33 116.5t-32 213.5t-32 215q0 36 5 65l37 -2l10 -6v-13z" />
    <glyph glyph-name="dieresis" unicode="&#xa8;" horiz-adv-x="376" 
d="M49.5 577.5q-15.5 15.5 -15.5 39t15.5 39.5t39 16t39.5 -16t16 -39.5t-16 -39t-39.5 -15.5t-39 15.5zM247.5 577.5q-15.5 15.5 -15.5 39t15.5 39.5t39 16t39.5 -16t16 -39.5t-16 -39t-39.5 -15.5t-39 15.5z" />
    <glyph glyph-name="copyright" unicode="&#xa9;" horiz-adv-x="810" 
d="M144 57q-101 96 -101 265t105 268t261 99t257 -96t101 -264.5t-104.5 -268t-261 -99.5t-257.5 96zM197 551q-76 -82 -76 -225t79 -226t208.5 -83t205 82t75.5 225t-78.5 226t-208 83t-205.5 -82zM459 460q-20 5 -58.5 5t-63.5 -14q-26 -37 -26 -110q0 -150 121 -150
q48 0 99 18l11 -21q-13 -17 -49.5 -34.5t-83.5 -17.5q-75 0 -124.5 49.5t-49.5 145t53.5 142.5t125.5 47q37 0 68 -13q52 -21 64 -45l-59 -75l-19 6z" />
    <glyph glyph-name="ordfeminine" unicode="&#xaa;" horiz-adv-x="343" 
d="M194 449q-23 -19 -53.5 -19t-48 18t-17.5 44.5t27 41t87 24.5v20q2 39 -36 39q-16 0 -24 -4l-2 -34l-20 -6l-34 48q37 37 92 37q81 0 81 -95l-1 -90l32 -11l-6 -24l-50 -7l-13 4zM157 474q20 0 32 6v45q-47 -5 -61 -15q-2 -36 29 -36zM56 327l12 39l211 4l11 -12l-11 -46
q-182 3 -212 3z" />
    <glyph glyph-name="guillemotleft" unicode="&#xab;" horiz-adv-x="536" 
d="M263 6l-239 202v34l239 202l31 -32l-169 -187l169 -187zM464 18l-203 193v28l203 193l34 -27l-142 -180l142 -180z" />
    <glyph glyph-name="logicalnot" unicode="&#xac;" horiz-adv-x="578" 
d="M61 319l12 45l425 2l11 -12l2 -186l-47 -11l-12 11q1 38 2 137q-200 2 -382 2z" />
    <glyph glyph-name="registered" unicode="&#xae;" horiz-adv-x="830" 
d="M148.5 57.5q-105.5 96.5 -105.5 264.5t109.5 267.5t266.5 99.5t262.5 -96.5t105.5 -264.5t-109 -267.5t-266.5 -99.5t-263 96.5zM201.5 551q-80.5 -82 -80.5 -224.5t83.5 -226t214 -83.5t210.5 82.5t80 224.5t-82.5 225.5t-213.5 83.5t-211.5 -82zM394 297h-32v-122
q26 -11 48 -23l-3 -19h-158l-5 19l34 15q19 9 19 21v290l-53 22l5 19q109 6 149 6q157 0 157 -113q0 -42 -22.5 -69t-58.5 -36q2 -8 28 -59q48 -92 93 -92h2l-4 -23l-86 -4q-32 18 -96 155q0 1 -1 3t-1.5 3.5t-2.5 3.5q-5 3 -12 3zM362 471v-133h38q44 0 63 9v-1
q17 15 17 53q0 85 -73 85h-31q-14 0 -14 -13z" />
    <glyph glyph-name="degree" unicode="&#xb0;" horiz-adv-x="336" 
d="M110 538q0 -81 63 -81q17 0 33 6q20 20 20 67q0 81 -63 81q-17 0 -33 -6q-20 -20 -20 -67zM75 445q-32 35 -32 91.5t35 89t92.5 32.5t90 -35.5t32.5 -90.5t-35 -88.5t-93 -33.5t-90 35z" />
    <glyph glyph-name="plusminus" unicode="&#xb1;" horiz-adv-x="466" 
d="M205 446v139l45 12l12 -11v-140l134 2l11 -12l-11 -49q-63 0 -133 1l1 -138l-49 -11l-12 11q1 54 1 138q-63 1 -134 1l-11 12l12 45h134zM64 98l12 45l315 2l11 -12l-11 -49q-285 2 -316 2z" />
    <glyph glyph-name="twosuperior" unicode="&#xb2;" horiz-adv-x="326" 
d="M163 472.5q30 38.5 30 67.5q0 56 -44 56q-13 0 -25 -5l-3 -39l-30 -7l-40 52q15 19 49.5 34.5t69 15.5t62 -26.5t27.5 -70t-30.5 -82t-88.5 -85.5h79l26 42l28 -7l-5 -85h-207l-7 36q79 65 109 103.5z" />
    <glyph glyph-name="threesuperior" unicode="&#xb3;" horiz-adv-x="301" 
d="M222 623q25 -24 25 -66.5t-30 -70.5q35 -31 35 -68t-35.5 -63.5t-100.5 -26.5q-31 0 -55 6l-5 14l9 39q35 -10 67 -10t57 10q4 12 4 27q0 38 -34 49q-45 0 -54 3l-7 9l4 27q1 0 60 4q29 14 29 46q0 19 -14 33.5t-32.5 14.5t-33.5 -5l-3 -40l-21 -5l-37 53q44 44 95.5 44
t76.5 -24z" />
    <glyph glyph-name="acute" unicode="&#xb4;" horiz-adv-x="293" 
d="M40 572l172 123l41 -52l-4 -20l-196 -71z" />
    <glyph glyph-name="mu" unicode="&#xb5;" horiz-adv-x="566" 
d="M251 -8q-41 0 -73 14l6 -244h-76l-12 11q11 177 11 284v321l-70 11l-6 22l137 47l20 -8v-293q0 -51 23.5 -73.5t75.5 -22.5t104 13v304l-70 11l-6 22l137 47l20 -8v-396l69 -24l-6 -22l-85 -16l-20 8l-32 28l-5 2q-69 -38 -142 -38z" />
    <glyph glyph-name="mu" unicode="&#x3bc;" horiz-adv-x="566" 
d="M251 -8q-41 0 -73 14l6 -244h-76l-12 11q11 177 11 284v321l-70 11l-6 22l137 47l20 -8v-293q0 -51 23.5 -73.5t75.5 -22.5t104 13v304l-70 11l-6 22l137 47l20 -8v-396l69 -24l-6 -22l-85 -16l-20 8l-32 28l-5 2q-69 -38 -142 -38z" />
    <glyph glyph-name="paragraph" unicode="&#xb6;" horiz-adv-x="497" 
d="M100 15q65 -32 126 -32q16 0 37.5 3t27.5 7q15 28 15 112v161q-9 -1 -32 -1q-100 0 -168 51.5t-68 148.5t69 144.5t183 47.5q46 0 175 -7l6 -22l-55 -23q-22 -9 -31.5 -16.5t-9.5 -21.5v-443q0 -96 -46 -148.5t-127 -52.5q-40 0 -71.5 9t-39.5 15l-11 19z" />
    <glyph glyph-name="periodcentered" unicode="&#xb7;" horiz-adv-x="228" 
d="M74.5 180.5q-15.5 15.5 -15.5 39t15.5 39.5t39 16t39.5 -16t16 -39.5t-16 -39t-39.5 -15.5t-39 15.5z" />
    <glyph glyph-name="cedilla" unicode="&#xb8;" horiz-adv-x="357" 
d="M100 -187q23 -9 50.5 -9t48.5 7q9 14 9 35q0 55 -62 55h-11l-11 13l30 104h31l-5 -86q37 -2 62 -23t25 -57.5t-32.5 -63t-77 -26.5t-60.5 8l-7 10z" />
    <glyph glyph-name="onesuperior" unicode="&#xb9;" horiz-adv-x="254" 
d="M104 379v196l-48 -6l-5 23l93 54l24 -7v-266l44 -21l-6 -19h-146l-5 23l45 17q4 1 4 6z" />
    <glyph glyph-name="ordmasculine" unicode="&#xba;" horiz-adv-x="358" 
d="M64 327l12 39l207 4l11 -12l-11 -46q-178 3 -208 3zM131 547q0 -70 53 -70q14 0 27 5q16 16 16 59q0 70 -53 70q-14 0 -27 -5q-16 -16 -16 -59zM95 463.5q-31 33.5 -31 82.5t33.5 80.5t84 31.5t81.5 -34t31 -82t-33.5 -80t-84 -32t-81.5 33.5z" />
    <glyph glyph-name="guillemotright" unicode="&#xbb;" horiz-adv-x="536" 
d="M512 208l-239 -202l-31 32l169 187l-169 187l31 32l239 -202v-34zM275 211l-203 -193l-34 27l142 180l-142 180l34 27l203 -193v-28z" />
    <glyph glyph-name="onequarter" unicode="&#xbc;" horiz-adv-x="638" 
d="M564 296q25 -24 25 -66.5t-30 -70.5q35 -31 35 -68t-35.5 -63.5t-100.5 -26.5q-31 0 -55 6l-5 14l9 39q35 -10 67 -10t57 10q4 12 4 27q0 38 -34 49q-45 0 -54 3l-7 9l4 27q1 0 60 4q29 14 29 46q0 19 -14 33.5t-32.5 14.5t-33.5 -5l-3 -40l-21 -5l-37 53q44 44 95.5 44
t76.5 -24zM105 379v196l-48 -6l-5 23l93 54l24 -7v-266l44 -21l-6 -19h-146l-5 23l45 17q4 1 4 6zM562 630l12 -11q-242 -307 -458 -600l-64 -15l-12 11q242 307 458 600z" />
    <glyph glyph-name="onehalf" unicode="&#xbd;" horiz-adv-x="639" 
d="M105 379v196l-48 -6l-5 23l93 54l24 -7v-266l44 -21l-6 -19h-146l-5 23l45 17q4 1 4 6zM488 142.5q30 38.5 30 67.5q0 56 -44 56q-13 0 -25 -5l-3 -39l-30 -7l-40 52q15 19 49.5 34.5t69 15.5t62 -26.5t27.5 -70t-30.5 -82t-88.5 -85.5h79l26 42l28 -7l-5 -85h-207l-7 36
q79 65 109 103.5zM562 630l12 -11q-242 -307 -458 -600l-64 -15l-12 11q242 307 458 600z" />
    <glyph glyph-name="threequarters" unicode="&#xbe;" horiz-adv-x="605" 
d="M439 82h-122l-5 30l128 196l37 11l19 -6q0 -75 2 -185l39 1l7 -9l-3 -38h-43l1 -78l-52 -4l-9 8q1 30 1 74zM439 126l1 99l-63 -99h62zM107 379v196l-48 -6l-5 23l93 54l24 -7v-266l44 -21l-6 -19h-146l-5 23l45 17q4 1 4 6zM564 630l12 -11q-242 -307 -458 -600l-64 -15
l-12 11q242 307 458 600z" />
    <glyph glyph-name="questiondown" unicode="&#xbf;" horiz-adv-x="386" 
d="M144 60q-38 -32 -38 -92.5t33 -89.5q32 -12 94 -12t115 17l11 -54l-11 -18q-36 -18 -97 -18q-96 0 -159.5 49t-63.5 127.5t48 125.5t142 88l8 86l38 2l14 -138q-96 -41 -134 -73zM294 403q0 -24 -15.5 -39.5t-39.5 -15.5t-39.5 16t-15.5 39t16 39t39.5 16t39 -15.5
t15.5 -39.5z" />
    <glyph glyph-name="Agrave" unicode="&#xc0;" horiz-adv-x="636" 
d="M467 70q0 6 -3 13l-45 127h-232l-53 -153l86 -35l-6 -22h-221l-6 22l55 23q17 7 21.5 13t11.5 25l200 557l61 18l20 -8l215 -596l78 -32l-6 -22h-245l-6 22l55 23q20 8 20 25zM302 542l-98 -281h197zM392 722l-211 77l43 55l20 4l161 -116z" />
    <glyph glyph-name="Aacute" unicode="&#xc1;" horiz-adv-x="636" 
d="M467 70q0 6 -3 13l-45 127h-232l-53 -153l86 -35l-6 -22h-221l-6 22l55 23q17 7 21.5 13t11.5 25l200 557l61 18l20 -8l215 -596l78 -32l-6 -22h-245l-6 22l55 23q20 8 20 25zM302 542l-98 -281h197zM217 742l172 123l41 -52l-4 -20l-196 -71z" />
    <glyph glyph-name="Acircumflex" unicode="&#xc2;" horiz-adv-x="636" 
d="M467 70q0 6 -3 13l-45 127h-232l-53 -153l86 -35l-6 -22h-221l-6 22l55 23q17 7 21.5 13t11.5 25l200 557l61 18l20 -8l215 -596l78 -32l-6 -22h-245l-6 22l55 23q20 8 20 25zM302 542l-98 -281h197zM178 747l120 111h40l120 -111l-19 -19l-121 59l-121 -59z" />
    <glyph glyph-name="Atilde" unicode="&#xc3;" horiz-adv-x="636" 
d="M467 70q0 6 -3 13l-45 127h-232l-53 -153l86 -35l-6 -22h-221l-6 22l55 23q17 7 21.5 13t11.5 25l200 557l61 18l20 -8l215 -596l78 -32l-6 -22h-245l-6 22l55 23q20 8 20 25zM302 542l-98 -281h197zM405 801h1l55 47l17 -11l-52 -99l-20 -5q-26 0 -92 26t-83 26h-1
l-55 -47l-17 11l52 99l20 5q26 0 92 -26t83 -26z" />
    <glyph glyph-name="Adieresis" unicode="&#xc4;" horiz-adv-x="636" 
d="M467 70q0 6 -3 13l-45 127h-232l-53 -153l86 -35l-6 -22h-221l-6 22l55 23q17 7 21.5 13t11.5 25l200 557l61 18l20 -8l215 -596l78 -32l-6 -22h-245l-6 22l55 23q20 8 20 25zM302 542l-98 -281h197zM179.5 747.5q-15.5 15.5 -15.5 39t15.5 39.5t39 16t39.5 -16t16 -39.5
t-16 -39t-39.5 -15.5t-39 15.5zM377.5 747.5q-15.5 15.5 -15.5 39t15.5 39.5t39 16t39.5 -16t16 -39.5t-16 -39t-39.5 -15.5t-39 15.5z" />
    <glyph glyph-name="Aring" unicode="&#xc5;" horiz-adv-x="636" 
d="M467 70q0 6 -3 13l-45 127h-232l-53 -153l86 -35l-6 -22h-221l-6 22l55 23q17 7 21.5 13t11.5 25l200 557l61 18l20 -8l215 -596l78 -32l-6 -22h-245l-6 22l55 23q20 8 20 25zM302 542l-98 -281h197zM279 796q0 -53 43 -53q13 0 20 5q15 11 15 42q0 53 -43 53
q-13 0 -20 -5q-15 -11 -15 -42zM247.5 730q-25.5 23 -25.5 62.5t27.5 63t70 23.5t68.5 -23.5t26 -62.5t-28 -62.5t-70.5 -23.5t-68 23z" />
    <glyph glyph-name="AE" unicode="&#xc6;" horiz-adv-x="860" 
d="M550 570v-218q73 0 164 8l31 2l11 -12l-11 -52q-114 5 -195 5v-253l187 4l48 88l30 -7v-135h-430l-6 22l55 23q18 7 24.5 15t6.5 23v120h-228l-86 -146l86 -35l-6 -22h-241l-6 22l55 23q36 15 50 38l306 510l-86 35l6 22h495v-135l-30 -7l-48 88l-155 4q-27 0 -27 -30z
M465 256v333l-197 -333h197z" />
    <glyph glyph-name="Ccedilla" unicode="&#xc7;" horiz-adv-x="591" 
d="M254 -187q23 -9 50.5 -9t48.5 7q9 14 9 35q0 55 -62 55h-11l-11 13l23 82q-114 16 -184.5 100.5t-70.5 223.5q0 162 93 250t223 88q93 0 144 -41q36 -28 49 -50l-65 -90l-24 7l-5 94q-46 16 -116.5 16t-119.5 -22q-90 -84 -90 -238q0 -135 70 -207.5t177 -72.5
q81 0 167 43l15 -29q-26 -26 -82.5 -51t-131.5 -25h-13l-3 -60q37 -2 62 -23t25 -57.5t-32.5 -63t-77 -26.5t-60.5 8l-7 10z" />
    <glyph glyph-name="Egrave" unicode="&#xc8;" horiz-adv-x="545" 
d="M205 568v-216q95 0 193 9l32 3l11 -12l-11 -56q-119 7 -225 7v-251l217 4l48 88l30 -7v-137h-460l-6 22l55 23q18 7 24.5 15t6.5 23v510l-86 35l6 22h455v-137l-30 -7l-48 88l-185 4q-27 0 -27 -30zM366 722l-211 77l43 55l20 4l161 -116z" />
    <glyph glyph-name="Eacute" unicode="&#xc9;" horiz-adv-x="545" 
d="M205 568v-216q95 0 193 9l32 3l11 -12l-11 -56q-119 7 -225 7v-251l217 4l48 88l30 -7v-137h-460l-6 22l55 23q18 7 24.5 15t6.5 23v510l-86 35l6 22h455v-137l-30 -7l-48 88l-185 4q-27 0 -27 -30zM181 742l172 123l41 -52l-4 -20l-196 -71z" />
    <glyph glyph-name="Ecircumflex" unicode="&#xca;" horiz-adv-x="545" 
d="M205 568v-216q95 0 193 9l32 3l11 -12l-11 -56q-119 7 -225 7v-251l217 4l48 88l30 -7v-137h-460l-6 22l55 23q18 7 24.5 15t6.5 23v510l-86 35l6 22h455v-137l-30 -7l-48 88l-185 4q-27 0 -27 -30zM147 747l120 111h40l120 -111l-19 -19l-121 59l-121 -59z" />
    <glyph glyph-name="Edieresis" unicode="&#xcb;" horiz-adv-x="545" 
d="M205 568v-216q95 0 193 9l32 3l11 -12l-11 -56q-119 7 -225 7v-251l217 4l48 88l30 -7v-137h-460l-6 22l55 23q18 7 24.5 15t6.5 23v510l-86 35l6 22h455v-137l-30 -7l-48 88l-185 4q-27 0 -27 -30zM148.5 747.5q-15.5 15.5 -15.5 39t15.5 39.5t39 16t39.5 -16t16 -39.5
t-16 -39t-39.5 -15.5t-39 15.5zM346.5 747.5q-15.5 15.5 -15.5 39t15.5 39.5t39 16t39.5 -16t16 -39.5t-16 -39t-39.5 -15.5t-39 15.5z" />
    <glyph glyph-name="Igrave" unicode="&#xcc;" horiz-adv-x="325" 
d="M205 567v-510l86 -35l-6 -22h-245l-6 22l55 23q18 7 24.5 15t6.5 23v510l-86 35l6 22h245l6 -22l-55 -23q-18 -7 -24.5 -15t-6.5 -23zM251 722l-211 77l43 55l20 4l161 -116z" />
    <glyph glyph-name="Iacute" unicode="&#xcd;" horiz-adv-x="325" 
d="M205 567v-510l86 -35l-6 -22h-245l-6 22l55 23q18 7 24.5 15t6.5 23v510l-86 35l6 22h245l6 -22l-55 -23q-18 -7 -24.5 -15t-6.5 -23zM56 742l172 123l41 -52l-4 -20l-196 -71z" />
    <glyph glyph-name="Icircumflex" unicode="&#xce;" horiz-adv-x="325" 
d="M205 567v-510l86 -35l-6 -22h-245l-6 22l55 23q18 7 24.5 15t6.5 23v510l-86 35l6 22h245l6 -22l-55 -23q-18 -7 -24.5 -15t-6.5 -23zM22 747l120 111h40l120 -111l-19 -19l-121 59l-121 -59z" />
    <glyph glyph-name="Idieresis" unicode="&#xcf;" horiz-adv-x="325" 
d="M205 567v-510l86 -35l-6 -22h-245l-6 22l55 23q18 7 24.5 15t6.5 23v510l-86 35l6 22h245l6 -22l-55 -23q-18 -7 -24.5 -15t-6.5 -23zM23.5 747.5q-15.5 15.5 -15.5 39t15.5 39.5t39 16t39.5 -16t16 -39.5t-16 -39t-39.5 -15.5t-39 15.5zM221.5 747.5
q-15.5 15.5 -15.5 39t15.5 39.5t39 16t39.5 -16t16 -39.5t-16 -39t-39.5 -15.5t-39 15.5z" />
    <glyph glyph-name="Eth" unicode="&#xd0;" horiz-adv-x="707" 
d="M121 350v243l-86 35l6 22q226 8 284 8q334 0 334 -342q0 -178 -95 -250.5t-301 -72.5q-47 0 -222 7l-6 22l55 23q18 7 24.5 15t6.5 23v215q-28 1 -75 1l-11 12l12 39h74zM340 603h-107q-27 0 -27 -25v-227l167 7l11 -12l-11 -52q-81 2 -167 3v-244q39 -4 100 -4
q132 0 198 43q62 76 62 214.5t-58 217.5t-168 79z" />
    <glyph glyph-name="Ntilde" unicode="&#xd1;" horiz-adv-x="740" 
d="M628 567v-567l-72 -8l-370 526v-461l86 -35l-6 -22h-226l-6 22l55 23q18 7 24.5 15t6.5 23v510l-86 35l6 22h167l354 -504v-2l1 2v447l-86 35l6 22h226l6 -22l-55 -23q-18 -7 -24.5 -15t-6.5 -23zM461 801h1l55 47l17 -11l-52 -99l-20 -5q-26 0 -92 26t-83 26h-1l-55 -47
l-17 11l52 99l20 5q26 0 92 -26t83 -26z" />
    <glyph glyph-name="Ograve" unicode="&#xd2;" horiz-adv-x="705" 
d="M201 557q-62 -85 -62 -219t56.5 -209t163.5 -75q89 0 145 37q62 76 62 214.5t-56.5 213.5t-162.5 75q-88 0 -146 -37zM46 320q0 84 26 150t70 106q92 82 221.5 82t212.5 -88t83 -242q0 -84 -26 -149.5t-71 -105.5q-90 -81 -220 -81t-213 87t-83 241zM436 722l-211 77
l43 55l20 4l161 -116z" />
    <glyph glyph-name="Oacute" unicode="&#xd3;" horiz-adv-x="705" 
d="M201 557q-62 -85 -62 -219t56.5 -209t163.5 -75q89 0 145 37q62 76 62 214.5t-56.5 213.5t-162.5 75q-88 0 -146 -37zM46 320q0 84 26 150t70 106q92 82 221.5 82t212.5 -88t83 -242q0 -84 -26 -149.5t-71 -105.5q-90 -81 -220 -81t-213 87t-83 241zM246 742l172 123
l41 -52l-4 -20l-196 -71z" />
    <glyph glyph-name="Ocircumflex" unicode="&#xd4;" horiz-adv-x="705" 
d="M201 557q-62 -85 -62 -219t56.5 -209t163.5 -75q89 0 145 37q62 76 62 214.5t-56.5 213.5t-162.5 75q-88 0 -146 -37zM46 320q0 84 26 150t70 106q92 82 221.5 82t212.5 -88t83 -242q0 -84 -26 -149.5t-71 -105.5q-90 -81 -220 -81t-213 87t-83 241zM212 747l120 111h40
l120 -111l-19 -19l-121 59l-121 -59z" />
    <glyph glyph-name="Otilde" unicode="&#xd5;" horiz-adv-x="705" 
d="M201 557q-62 -85 -62 -219t56.5 -209t163.5 -75q89 0 145 37q62 76 62 214.5t-56.5 213.5t-162.5 75q-88 0 -146 -37zM46 320q0 84 26 150t70 106q92 82 221.5 82t212.5 -88t83 -242q0 -84 -26 -149.5t-71 -105.5q-90 -81 -220 -81t-213 87t-83 241zM439 801h1l55 47
l17 -11l-52 -99l-20 -5q-26 0 -92 26t-83 26h-1l-55 -47l-17 11l52 99l20 5q26 0 92 -26t83 -26z" />
    <glyph glyph-name="Odieresis" unicode="&#xd6;" horiz-adv-x="705" 
d="M201 557q-62 -85 -62 -219t56.5 -209t163.5 -75q89 0 145 37q62 76 62 214.5t-56.5 213.5t-162.5 75q-88 0 -146 -37zM46 320q0 84 26 150t70 106q92 82 221.5 82t212.5 -88t83 -242q0 -84 -26 -149.5t-71 -105.5q-90 -81 -220 -81t-213 87t-83 241zM213.5 747.5
q-15.5 15.5 -15.5 39t15.5 39.5t39 16t39.5 -16t16 -39.5t-16 -39t-39.5 -15.5t-39 15.5zM411.5 747.5q-15.5 15.5 -15.5 39t15.5 39.5t39 16t39.5 -16t16 -39.5t-16 -39t-39.5 -15.5t-39 15.5z" />
    <glyph glyph-name="multiply" unicode="&#xd7;" horiz-adv-x="492" 
d="M62 487l36 30l148 -149l146 150l37 -30l1 -16l-142 -147l143 -144l-1 -16l-38 -32l-146 149l-145 -149l-38 31l-1 16l142 145l-143 146z" />
    <glyph glyph-name="Oslash" unicode="&#xd8;" horiz-adv-x="704" 
d="M46 320q0 84 26 150t70 106q92 82 218 82q69 0 131 -27l52 92l59 10l11 -12q-7 -12 -71 -120q117 -89 117 -273q0 -84 -26 -149.5t-71 -105.5q-90 -81 -219 -81q-76 0 -135 28l-45 -81l-59 -10l-11 12l65 111q-112 89 -112 268zM244 84q46 -30 125 -30t135 37
q62 76 62 220.5t-66 218.5q-152 -260 -256 -446zM201 557q-62 -85 -62 -223.5t61 -211.5q119 202 255 445q-48 27 -122 27t-132 -37z" />
    <glyph glyph-name="Ugrave" unicode="&#xd9;" horiz-adv-x="699" 
d="M599 567v-312q0 -141 -58 -202t-181 -61q-261 0 -261 260v345l-76 31l6 22h235l1 -22l-50 -23q-18 -7 -24.5 -15t-6.5 -23v-310q0 -97 46.5 -150t125.5 -53t127 24q50 53 50 174v341l-86 35l6 22h216l6 -22l-45 -19q-31 -12 -31 -42zM408 722l-211 77l43 55l20 4
l161 -116z" />
    <glyph glyph-name="Uacute" unicode="&#xda;" horiz-adv-x="699" 
d="M599 567v-312q0 -141 -58 -202t-181 -61q-261 0 -261 260v345l-76 31l6 22h235l1 -22l-50 -23q-18 -7 -24.5 -15t-6.5 -23v-310q0 -97 46.5 -150t125.5 -53t127 24q50 53 50 174v341l-86 35l6 22h216l6 -22l-45 -19q-31 -12 -31 -42zM273 742l172 123l41 -52l-4 -20
l-196 -71z" />
    <glyph glyph-name="Ucircumflex" unicode="&#xdb;" horiz-adv-x="699" 
d="M599 567v-312q0 -141 -58 -202t-181 -61q-261 0 -261 260v345l-76 31l6 22h235l1 -22l-50 -23q-18 -7 -24.5 -15t-6.5 -23v-310q0 -97 46.5 -150t125.5 -53t127 24q50 53 50 174v341l-86 35l6 22h216l6 -22l-45 -19q-31 -12 -31 -42zM209 747l120 111h40l120 -111
l-19 -19l-121 59l-121 -59z" />
    <glyph glyph-name="Udieresis" unicode="&#xdc;" horiz-adv-x="699" 
d="M599 567v-312q0 -141 -58 -202t-181 -61q-261 0 -261 260v345l-76 31l6 22h235l1 -22l-50 -23q-18 -7 -24.5 -15t-6.5 -23v-310q0 -97 46.5 -150t125.5 -53t127 24q50 53 50 174v341l-86 35l6 22h216l6 -22l-45 -19q-31 -12 -31 -42zM200.5 747.5q-15.5 15.5 -15.5 39
t15.5 39.5t39 16t39.5 -16t16 -39.5t-16 -39t-39.5 -15.5t-39 15.5zM418.5 747.5q-15.5 15.5 -15.5 39t15.5 39.5t39 16t39.5 -16t16 -39.5t-16 -39t-39.5 -15.5t-39 15.5z" />
    <glyph glyph-name="Yacute" unicode="&#xdd;" horiz-adv-x="598" 
d="M258 83v215l-198 298l-70 32l6 22h241l6 -22l-47 -23q-22 -10 -22 -24q0 -7 5 -14l136 -202l148 228l-86 35l6 22h224l6 -22l-55 -23q-19 -8 -27.5 -17.5t-15.5 -20.5l-172 -266v-244l86 -35l-6 -22h-245l-6 22l55 23q18 7 24.5 15t6.5 23zM215 742l172 123l41 -52
l-4 -20l-196 -71z" />
    <glyph glyph-name="Thorn" unicode="&#xde;" horiz-adv-x="529" 
d="M205 567v-71q17 1 46 1q129 0 189 -43t60 -129q0 -170 -229 -170q-35 0 -66 3v-101l86 -35l-6 -22h-245l-6 22l55 23q18 7 24.5 15t6.5 23v510l-86 35l6 22h245l6 -22l-55 -23q-18 -7 -24.5 -15t-6.5 -23zM279 446h-47q-27 0 -27 -25v-212q26 -4 81 -4t95 20q26 30 26 91
q0 130 -128 130z" />
    <glyph glyph-name="germandbls" unicode="&#xdf;" horiz-adv-x="543" 
d="M175 79q0 -38 10 -70l-8 -9h-148l-6 22l45 19q18 7 24.5 15t6.5 23v323h-70l-6 22l76 34q1 96 57 163t149 67q73 0 112.5 -41.5t39.5 -98.5q0 -38 -19.5 -66t-43 -42t-43 -35t-19.5 -50t29 -50l66 -48q53 -39 74 -67.5t21 -69.5q0 -59 -38 -93.5t-96 -34.5t-97 20t-51 37
l41 87l20 -5l4 -71q29 -16 70 -16q73 0 73 57q0 27 -15.5 47.5t-50.5 46.5l-56 40q-62 44 -62 110q0 31 15 57.5t32.5 40.5t43 32t34.5 27v14q0 51 -28 81.5t-83 30.5t-84 -26q-19 -30 -19 -152v-371z" />
    <glyph glyph-name="agrave" unicode="&#xe0;" horiz-adv-x="431" 
d="M138 74q23 -17 53.5 -17t81.5 17l2 116q-128 -7 -159 -44q-1 -5 -1 -13q0 -42 23 -59zM274 30q-65 -38 -119 -38t-85.5 34.5t-31.5 88t52.5 82.5t184.5 37l1 65q1 45 -21.5 72.5t-61.5 27.5t-68 -9l-8 -76l-24 -7l-55 78q22 25 66 49t105 24q149 0 149 -181l-5 -223
l69 -24l-6 -22l-85 -16l-20 8l-32 28zM297 552l-211 77l43 55l20 4l161 -116z" />
    <glyph glyph-name="aacute" unicode="&#xe1;" horiz-adv-x="431" 
d="M138 74q23 -17 53.5 -17t81.5 17l2 116q-128 -7 -159 -44q-1 -5 -1 -13q0 -42 23 -59zM274 30q-65 -38 -119 -38t-85.5 34.5t-31.5 88t52.5 82.5t184.5 37l1 65q1 45 -21.5 72.5t-61.5 27.5t-68 -9l-8 -76l-24 -7l-55 78q22 25 66 49t105 24q149 0 149 -181l-5 -223
l69 -24l-6 -22l-85 -16l-20 8l-32 28zM97 572l172 123l41 -52l-4 -20l-196 -71z" />
    <glyph glyph-name="acircumflex" unicode="&#xe2;" horiz-adv-x="431" 
d="M138 74q23 -17 53.5 -17t81.5 17l2 116q-128 -7 -159 -44q-1 -5 -1 -13q0 -42 23 -59zM274 30q-65 -38 -119 -38t-85.5 34.5t-31.5 88t52.5 82.5t184.5 37l1 65q1 45 -21.5 72.5t-61.5 27.5t-68 -9l-8 -76l-24 -7l-55 78q22 25 66 49t105 24q149 0 149 -181l-5 -223
l69 -24l-6 -22l-85 -16l-20 8l-32 28zM63 577l120 111h40l120 -111l-19 -19l-121 59l-121 -59z" />
    <glyph glyph-name="atilde" unicode="&#xe3;" horiz-adv-x="431" 
d="M138 74q23 -17 53.5 -17t81.5 17l2 116q-128 -7 -159 -44q-1 -5 -1 -13q0 -42 23 -59zM274 30q-65 -38 -119 -38t-85.5 34.5t-31.5 88t52.5 82.5t184.5 37l1 65q1 45 -21.5 72.5t-61.5 27.5t-68 -9l-8 -76l-24 -7l-55 78q22 25 66 49t105 24q149 0 149 -181l-5 -223
l69 -24l-6 -22l-85 -16l-20 8l-32 28zM290 631h1l55 47l17 -11l-52 -99l-20 -5q-26 0 -92 26t-83 26h-1l-55 -47l-17 11l52 99l20 5q26 0 92 -26t83 -26z" />
    <glyph glyph-name="adieresis" unicode="&#xe4;" horiz-adv-x="431" 
d="M138 74q23 -17 53.5 -17t81.5 17l2 116q-128 -7 -159 -44q-1 -5 -1 -13q0 -42 23 -59zM274 30q-65 -38 -119 -38t-85.5 34.5t-31.5 88t52.5 82.5t184.5 37l1 65q1 45 -21.5 72.5t-61.5 27.5t-68 -9l-8 -76l-24 -7l-55 78q22 25 66 49t105 24q149 0 149 -181l-5 -223
l69 -24l-6 -22l-85 -16l-20 8l-32 28zM64.5 577.5q-15.5 15.5 -15.5 39t15.5 39.5t39 16t39.5 -16t16 -39.5t-16 -39t-39.5 -15.5t-39 15.5zM262.5 577.5q-15.5 15.5 -15.5 39t15.5 39.5t39 16t39.5 -16t16 -39.5t-16 -39t-39.5 -15.5t-39 15.5z" />
    <glyph glyph-name="aring" unicode="&#xe5;" horiz-adv-x="431" 
d="M138 74q23 -17 53.5 -17t81.5 17l2 116q-128 -7 -159 -44q-1 -5 -1 -13q0 -42 23 -59zM274 30q-65 -38 -119 -38t-85.5 34.5t-31.5 88t52.5 82.5t184.5 37l1 65q1 45 -21.5 72.5t-61.5 27.5t-68 -9l-8 -76l-24 -7l-55 78q22 25 66 49t105 24q149 0 149 -181l-5 -223
l69 -24l-6 -22l-85 -16l-20 8l-32 28zM159 626q0 -53 43 -53q13 0 20 5q15 11 15 42q0 53 -43 53q-13 0 -20 -5q-15 -11 -15 -42zM127.5 560q-25.5 23 -25.5 62.5t27.5 63t70 23.5t68.5 -23.5t26 -62.5t-28 -62.5t-70.5 -23.5t-68 23z" />
    <glyph glyph-name="ae" unicode="&#xe6;" horiz-adv-x="678" 
d="M342 393q55 65 135 65t121.5 -51t41.5 -137v-37l-15 -15l-260 -16q2 -74 39.5 -110.5t94.5 -36.5t118 27l14 -26q-20 -22 -60 -43t-89 -21q-84 0 -139 60q-87 -60 -175 -60q-64 0 -97 34.5t-33 88.5t54 84t191 42l1 58q1 44 -22 72t-65.5 28t-71.5 -9l-8 -76l-24 -7
l-55 78q22 25 67.5 49t107.5 24q93 0 129 -65zM536 361.5q-24 34.5 -63 34.5t-67 -14q-11 -13 -17 -22t-14 -39t-9 -73l194 16q0 63 -24 97.5zM116 134q0 -84 88 -84q42 0 77 22l2 123q-134 -10 -166 -48q-1 -5 -1 -13z" />
    <glyph glyph-name="ccedilla" unicode="&#xe7;" horiz-adv-x="434" 
d="M163 -187q23 -9 50.5 -9t48.5 7q9 14 9 35q0 55 -62 55h-11l-11 13l23 81q-78 11 -125 71t-47 164.5t63.5 166t154.5 61.5q45 0 80 -17t47 -30t19 -26l-58 -78l-24 7l-8 76q-22 6 -70 6t-82 -17q-38 -48 -38 -137t42 -137.5t108 -48.5t123 26l14 -26q-12 -12 -29 -24.5
t-54.5 -26t-78.5 -13.5h-1l-3 -60q37 -2 62 -23t25 -57.5t-32.5 -63t-77 -26.5t-60.5 8l-7 10z" />
    <glyph glyph-name="egrave" unicode="&#xe8;" horiz-adv-x="455" 
d="M101 396.5q63 61.5 147 61.5t127 -49.5t43 -135.5v-33l-15 -15h-280q2 -77 43 -123t105.5 -46t123.5 26l14 -26q-12 -12 -29 -24.5t-54.5 -26t-78.5 -13.5q-93 0 -151 61.5t-58 171.5t63 171.5zM237 394q-47 0 -77 -15q-12 -15 -23.5 -48t-12.5 -63l214 6q0 120 -101 120
zM337 552l-211 77l43 55l20 4l161 -116z" />
    <glyph glyph-name="eacute" unicode="&#xe9;" horiz-adv-x="455" 
d="M101 396.5q63 61.5 147 61.5t127 -49.5t43 -135.5v-33l-15 -15h-280q2 -77 43 -123t105.5 -46t123.5 26l14 -26q-12 -12 -29 -24.5t-54.5 -26t-78.5 -13.5q-93 0 -151 61.5t-58 171.5t63 171.5zM237 394q-47 0 -77 -15q-12 -15 -23.5 -48t-12.5 -63l214 6q0 120 -101 120
zM132 572l172 123l41 -52l-4 -20l-196 -71z" />
    <glyph glyph-name="ecircumflex" unicode="&#xea;" horiz-adv-x="455" 
d="M101 396.5q63 61.5 147 61.5t127 -49.5t43 -135.5v-33l-15 -15h-280q2 -77 43 -123t105.5 -46t123.5 26l14 -26q-12 -12 -29 -24.5t-54.5 -26t-78.5 -13.5q-93 0 -151 61.5t-58 171.5t63 171.5zM237 394q-47 0 -77 -15q-12 -15 -23.5 -48t-12.5 -63l214 6q0 120 -101 120
zM98 577l120 111h40l120 -111l-19 -19l-121 59l-121 -59z" />
    <glyph glyph-name="edieresis" unicode="&#xeb;" horiz-adv-x="455" 
d="M101 396.5q63 61.5 147 61.5t127 -49.5t43 -135.5v-33l-15 -15h-280q2 -77 43 -123t105.5 -46t123.5 26l14 -26q-12 -12 -29 -24.5t-54.5 -26t-78.5 -13.5q-93 0 -151 61.5t-58 171.5t63 171.5zM237 394q-47 0 -77 -15q-12 -15 -23.5 -48t-12.5 -63l214 6q0 120 -101 120
zM99.5 577.5q-15.5 15.5 -15.5 39t15.5 39.5t39 16t39.5 -16t16 -39.5t-16 -39t-39.5 -15.5t-39 15.5zM297.5 577.5q-15.5 15.5 -15.5 39t15.5 39.5t39 16t39.5 -16t16 -39.5t-16 -39t-39.5 -15.5t-39 15.5z" />
    <glyph glyph-name="igrave" unicode="&#xec;" horiz-adv-x="271" 
d="M100 79v299l-70 11l-6 22l137 47l20 -8v-396l79 -32l-6 -22h-224l-6 22l45 19q18 7 24.5 15t6.5 23zM201 552l-211 77l43 55l20 4l161 -116z" />
    <glyph glyph-name="iacute" unicode="&#xed;" horiz-adv-x="271" 
d="M100 79v299l-70 11l-6 22l137 47l20 -8v-396l79 -32l-6 -22h-224l-6 22l45 19q18 7 24.5 15t6.5 23zM16 572l172 123l41 -52l-4 -20l-196 -71z" />
    <glyph glyph-name="icircumflex" unicode="&#xee;" horiz-adv-x="271" 
d="M100 79v299l-70 11l-6 22l137 47l20 -8v-396l79 -32l-6 -22h-224l-6 22l45 19q18 7 24.5 15t6.5 23zM7 577l120 111h40l120 -111l-19 -19l-121 59l-121 -59z" />
    <glyph glyph-name="idieresis" unicode="&#xef;" horiz-adv-x="271" 
d="M100 79v299l-70 11l-6 22l137 47l20 -8v-396l79 -32l-6 -22h-224l-6 22l45 19q18 7 24.5 15t6.5 23zM3.5 577.5q-15.5 15.5 -15.5 39t15.5 39.5t39 16t39.5 -16t16 -39.5t-16 -39t-39.5 -15.5t-39 15.5zM191.5 577.5q-15.5 15.5 -15.5 39t15.5 39.5t39 16t39.5 -16
t16 -39.5t-16 -39t-39.5 -15.5t-39 15.5z" />
    <glyph glyph-name="eth" unicode="&#xf0;" horiz-adv-x="516" 
d="M469 268q0 -144 -62 -210t-159 -66t-153.5 63.5t-56.5 174t65.5 169.5t152.5 59q54 0 97 -27q-33 82 -103 142q-7 -10 -17 -22.5t-16 -20.5l-9 -12l-16 -2l-31 30l43 62q-15 11 -42 28.5t-29 18.5l18 33q45 -17 83 -37l39 53l17 2l38 -34q-20 -25 -42 -53
q83 -54 133 -147t50 -204zM383 224q1 17 1 52.5t-10 81.5q-56 38 -117.5 38t-96.5 -24q-37 -52 -37 -134.5t33.5 -132t96.5 -49.5q48 0 84 15q41 52 46 153z" />
    <glyph glyph-name="ntilde" unicode="&#xf1;" horiz-adv-x="547" 
d="M384 293q0 51 -23.5 73.5t-75.5 22.5t-104 -13v-322l79 -32l-6 -22h-224l-6 22l45 19q18 7 24.5 15t6.5 23v299l-70 11l-6 22l129 47l20 -8l2 -28l4 -2q69 38 142 38q144 0 144 -153v-251l79 -32l-6 -22h-224l-6 22l45 19q18 7 24.5 15t6.5 23v214zM363 631h1l55 47
l17 -11l-52 -99l-20 -5q-26 0 -92 26t-83 26h-1l-55 -47l-17 11l52 99l20 5q26 0 92 -26t83 -26z" />
    <glyph glyph-name="ograve" unicode="&#xf2;" 
d="M123 236q0 -180 137 -180q50 0 86 15q37 48 37 143q0 180 -137 180q-50 0 -86 -15q-37 -48 -37 -143zM96 53q-58 61 -58 172.5t64 172t157 60.5t151 -61t58 -172.5t-64 -172t-157 -60.5t-151 61zM342 552l-211 77l43 55l20 4l161 -116z" />
    <glyph glyph-name="oacute" unicode="&#xf3;" 
d="M123 236q0 -180 137 -180q50 0 86 15q37 48 37 143q0 180 -137 180q-50 0 -86 -15q-37 -48 -37 -143zM96 53q-58 61 -58 172.5t64 172t157 60.5t151 -61t58 -172.5t-64 -172t-157 -60.5t-151 61zM147 572l172 123l41 -52l-4 -20l-196 -71z" />
    <glyph glyph-name="ocircumflex" unicode="&#xf4;" 
d="M123 236q0 -180 137 -180q50 0 86 15q37 48 37 143q0 180 -137 180q-50 0 -86 -15q-37 -48 -37 -143zM96 53q-58 61 -58 172.5t64 172t157 60.5t151 -61t58 -172.5t-64 -172t-157 -60.5t-151 61zM108 577l120 111h40l120 -111l-19 -19l-121 59l-121 -59z" />
    <glyph glyph-name="otilde" unicode="&#xf5;" 
d="M123 236q0 -180 137 -180q50 0 86 15q37 48 37 143q0 180 -137 180q-50 0 -86 -15q-37 -48 -37 -143zM96 53q-58 61 -58 172.5t64 172t157 60.5t151 -61t58 -172.5t-64 -172t-157 -60.5t-151 61zM335 631h1l55 47l17 -11l-52 -99l-20 -5q-26 0 -92 26t-83 26h-1l-55 -47
l-17 11l52 99l20 5q26 0 92 -26t83 -26z" />
    <glyph glyph-name="odieresis" unicode="&#xf6;" 
d="M123 236q0 -180 137 -180q50 0 86 15q37 48 37 143q0 180 -137 180q-50 0 -86 -15q-37 -48 -37 -143zM96 53q-58 61 -58 172.5t64 172t157 60.5t151 -61t58 -172.5t-64 -172t-157 -60.5t-151 61zM109.5 577.5q-15.5 15.5 -15.5 39t15.5 39.5t39 16t39.5 -16t16 -39.5
t-16 -39t-39.5 -15.5t-39 15.5zM307.5 577.5q-15.5 15.5 -15.5 39t15.5 39.5t39 16t39.5 -16t16 -39.5t-16 -39t-39.5 -15.5t-39 15.5z" />
    <glyph glyph-name="divide" unicode="&#xf7;" horiz-adv-x="523" 
d="M47 309l12 45l405 2l11 -12l-11 -49q-375 2 -406 2zM223.5 441.5q-14.5 14.5 -14.5 37t15 37.5t37 15t37 -15t15 -37t-15 -37t-37.5 -15t-37 14.5zM209 172q0 22 15 37t37 15t37 -15t15 -37t-15 -37t-37.5 -15t-37 15t-14.5 37z" />
    <glyph glyph-name="oslash" unicode="&#xf8;" 
d="M57 -69l60 102q-79 63 -79 183.5t63.5 181t156.5 60.5q48 0 88 -17l36 67l55 12l12 -11l-57 -96q76 -61 76 -180.5t-64 -180t-157 -60.5q-45 0 -83 15l-40 -75l-55 -12zM160 379q-37 -48 -37 -139t34 -137q90 157 155 276q-28 15 -72 15t-80 -15zM198 68q26 -12 69 -12
t79 15q37 48 37 137.5t-31 133.5q-120 -211 -154 -274z" />
    <glyph glyph-name="ugrave" unicode="&#xf9;" horiz-adv-x="534" 
d="M227 -8q-144 0 -144 153v233l-70 11l-6 22l137 47l20 -8v-293q0 -51 23.5 -73.5t75.5 -22.5t104 13v304l-70 11l-6 22l137 47l20 -8v-396l69 -24l-6 -22l-85 -16l-20 8l-32 28l-5 2q-69 -38 -142 -38zM334 552l-211 77l43 55l20 4l161 -116z" />
    <glyph glyph-name="uacute" unicode="&#xfa;" horiz-adv-x="534" 
d="M227 -8q-144 0 -144 153v233l-70 11l-6 22l137 47l20 -8v-293q0 -51 23.5 -73.5t75.5 -22.5t104 13v304l-70 11l-6 22l137 47l20 -8v-396l69 -24l-6 -22l-85 -16l-20 8l-32 28l-5 2q-69 -38 -142 -38zM169 572l172 123l41 -52l-4 -20l-196 -71z" />
    <glyph glyph-name="ucircumflex" unicode="&#xfb;" horiz-adv-x="534" 
d="M227 -8q-144 0 -144 153v233l-70 11l-6 22l137 47l20 -8v-293q0 -51 23.5 -73.5t75.5 -22.5t104 13v304l-70 11l-6 22l137 47l20 -8v-396l69 -24l-6 -22l-85 -16l-20 8l-32 28l-5 2q-69 -38 -142 -38zM115 577l120 111h40l120 -111l-19 -19l-121 59l-121 -59z" />
    <glyph glyph-name="udieresis" unicode="&#xfc;" horiz-adv-x="534" 
d="M227 -8q-144 0 -144 153v233l-70 11l-6 22l137 47l20 -8v-293q0 -51 23.5 -73.5t75.5 -22.5t104 13v304l-70 11l-6 22l137 47l20 -8v-396l69 -24l-6 -22l-85 -16l-20 8l-32 28l-5 2q-69 -38 -142 -38zM116.5 577.5q-15.5 15.5 -15.5 39t15.5 39.5t39 16t39.5 -16
t16 -39.5t-16 -39t-39.5 -15.5t-39 15.5zM314.5 577.5q-15.5 15.5 -15.5 39t15.5 39.5t39 16t39.5 -16t16 -39.5t-16 -39t-39.5 -15.5t-39 15.5z" />
    <glyph glyph-name="yacute" unicode="&#xfd;" horiz-adv-x="521" 
d="M181 409q-19 -8 -19 -21.5t5 -24.5l109 -257l112 290l-71 32l6 22h194l6 -22l-49 -21q-19 -8 -28 -25q-2 -6 -7 -19l-142 -351q-69 -170 -122 -250l-75 24l-8 20q105 113 141 193l-168 397l-71 32l6 22h220l6 -22zM172 572l172 123l41 -52l-4 -20l-196 -71z" />
    <glyph glyph-name="thorn" unicode="&#xfe;" 
d="M287 458q88 0 134.5 -67t46.5 -172.5t-63.5 -166t-158.5 -60.5q-46 0 -96 9v-175l79 -32l-6 -22h-224l-6 22l45 19q18 7 24.5 15t6.5 23v757l-70 11l-6 22l135 47l20 -8v-255l2 -3v-1q67 37 137 37zM150 70q40 -14 98.5 -14t97.5 15q37 49 37 143q0 175 -132 175
q-49 0 -101 -13v-306z" />
    <glyph glyph-name="ydieresis" unicode="&#xff;" horiz-adv-x="521" 
d="M181 409q-19 -8 -19 -21.5t5 -24.5l109 -257l112 290l-71 32l6 22h194l6 -22l-49 -21q-19 -8 -28 -25q-2 -6 -7 -19l-142 -351q-69 -170 -122 -250l-75 24l-8 20q105 113 141 193l-168 397l-71 32l6 22h220l6 -22zM129.5 577.5q-15.5 15.5 -15.5 39t15.5 39.5t39 16
t39.5 -16t16 -39.5t-16 -39t-39.5 -15.5t-39 15.5zM327.5 577.5q-15.5 15.5 -15.5 39t15.5 39.5t39 16t39.5 -16t16 -39.5t-16 -39t-39.5 -15.5t-39 15.5z" />
    <glyph glyph-name="dotlessi" unicode="&#x131;" horiz-adv-x="271" 
d="M100 79v299l-70 11l-6 22l137 47l20 -8v-396l79 -32l-6 -22h-224l-6 22l45 19q18 7 24.5 15t6.5 23z" />
    <glyph glyph-name="Lslash" unicode="&#x141;" horiz-adv-x="525" 
d="M17 261q38 22 108 64v268l-86 35l6 22h245l6 -22l-55 -23q-18 -7 -24.5 -15t-6.5 -23v-190l86 55l14 -4l19 -52q-56 -31 -119 -66v-258l222 4l48 88l30 -7v-137h-465l-6 22l55 23q18 7 24.5 15t6.5 23v179l-83 -45l-16 5z" />
    <glyph glyph-name="lslash" unicode="&#x142;" horiz-adv-x="281" 
d="M100 79v213q-26 -14 -70 -39l-16 5l-9 40l95 56v254l-70 11l-6 22l137 47l20 -8v-276l68 44l15 -5l17 -51q-47 -25 -100 -55v-283l79 -32l-6 -22h-224l-6 22l45 19q18 7 24.5 15t6.5 23z" />
    <glyph glyph-name="OE" unicode="&#x152;" horiz-adv-x="991" 
d="M46 320q0 111 46 189q86 148 268 148q130 0 206 -88v71l10 10h365v-137l-30 -7l-48 88l-185 4q-27 0 -27 -30v-216q95 0 193 9l32 3l11 -12l-11 -56q-119 7 -225 7v-251l217 4l48 88l30 -7v-137h-370l-10 10v77q-82 -95 -218.5 -95t-219 87.5t-82.5 240.5zM201 557
q-62 -85 -62 -219t56.5 -209t163.5 -75q89 0 145 37q33 44 45 82t16 117l1 17v20q0 115 -56.5 191t-163.5 76q-87 0 -145 -37z" />
    <glyph glyph-name="oe" unicode="&#x153;" horiz-adv-x="800" 
d="M96 53.5q-58 61.5 -58 172t63.5 171.5t152.5 61q58 0 105 -25.5t69 -68.5q24 43 72.5 68.5t102.5 25.5q75 0 117.5 -50t42.5 -135v-33l-15 -15h-280q2 -77 43 -123t105.5 -46t123.5 26l14 -26q-27 -30 -73 -47t-94 -17t-95.5 25.5t-68.5 67.5q-23 -42 -72.5 -67.5
t-107.5 -25.5q-89 0 -147 61.5zM123 236q0 -180 137 -180q50 0 86 15q37 47 37 140v11q-3 172 -137 172q-50 0 -86 -15q-37 -48 -37 -143zM582 394q-47 0 -77 -15q-12 -15 -23.5 -48t-12.5 -63l214 6q0 120 -101 120z" />
    <glyph glyph-name="Scaron" unicode="&#x160;" horiz-adv-x="517" 
d="M363 578q-33 18 -102.5 18t-113.5 -37q-12 -19 -12 -55q0 -77 82 -108l130 -50q128 -49 128 -177q0 -87 -61 -132t-158 -45q-134 0 -221 82l64 109l24 -7l15 -96q37 -26 107 -26q149 0 149 101q0 41 -26 67t-81 47l-115 44q-117 45 -117 162q0 88 62 135.5t158 47.5
q117 0 188 -82l-71 -99l-24 7zM235 728l-120 111l19 19l121 -59l121 59l19 -19l-120 -111h-40z" />
    <glyph glyph-name="scaron" unicode="&#x161;" horiz-adv-x="401" 
d="M267 394q-23 10 -70.5 10t-71.5 -24q-9 -14 -9 -33q0 -42 51 -61l102 -36q43 -15 69 -48.5t26 -78.5q0 -63 -48 -97t-112.5 -34t-108 21.5t-63.5 45.5l51 83l25 -7l4 -67q35 -20 89 -20q91 0 91 62q0 25 -16 40t-52 27l-92 30q-41 14 -63 46t-22 72q0 63 50 98t116 35
q40 0 75 -16q49 -21 66 -47l-55 -78l-24 7zM178 558l-120 111l19 19l121 -59l121 59l19 -19l-120 -111h-40z" />
    <glyph glyph-name="Ydieresis" unicode="&#x178;" horiz-adv-x="598" 
d="M258 83v215l-198 298l-70 32l6 22h241l6 -22l-47 -23q-22 -10 -22 -24q0 -7 5 -14l136 -202l148 228l-86 35l6 22h224l6 -22l-55 -23q-19 -8 -27.5 -17.5t-15.5 -20.5l-172 -266v-244l86 -35l-6 -22h-245l-6 22l55 23q18 7 24.5 15t6.5 23zM152.5 747.5
q-15.5 15.5 -15.5 39t15.5 39.5t39 16t39.5 -16t16 -39.5t-16 -39t-39.5 -15.5t-39 15.5zM370.5 747.5q-15.5 15.5 -15.5 39t15.5 39.5t39 16t39.5 -16t16 -39.5t-16 -39t-39.5 -15.5t-39 15.5z" />
    <glyph glyph-name="Zcaron" unicode="&#x17d;" horiz-adv-x="553" 
d="M508 0h-477l-6 29l374 569l-264 -2l-49 -90l-30 7v137h452l6 -33l-369 -565l284 2l49 90l30 -7v-137zM259 728l-120 111l19 19l121 -59l121 59l19 -19l-120 -111h-40z" />
    <glyph glyph-name="zcaron" unicode="&#x17e;" horiz-adv-x="429" 
d="M389 0h-355l-6 29l259 375l-167 -4l-48 -84l-24 7v117l10 10h325l6 -33l-256 -371l184 4l48 84l24 -7v-127zM193 558l-120 111l19 19l121 -59l121 59l19 -19l-120 -111h-40z" />
    <glyph glyph-name="florin" unicode="&#x192;" horiz-adv-x="524" 
d="M397 688q78 0 113 -49l-60 -82l-24 7l-3 72q-68 0 -104 -20q-18 -24 -48 -187h109l11 -12l-9 -38l-110 4h-9l-53 -286q-12 -67 -56 -117.5t-112 -70.5l-10 21q76 59 98 176l50 276l-65 -1l-7 22l83 37q44 248 206 248z" />
    <glyph glyph-name="dotlessj" unicode="&#x237;" horiz-adv-x="239" 
d="M170 0q0 -80 -38.5 -140.5t-104.5 -97.5l-14 18q76 89 76 212v386l-70 11l-6 22l137 47l20 -8v-450z" />
    <glyph glyph-name="circumflex" unicode="&#x2c6;" horiz-adv-x="360" 
d="M40 577l120 111h40l120 -111l-19 -19l-121 59l-121 -59z" />
    <glyph glyph-name="caron" unicode="&#x2c7;" horiz-adv-x="360" 
d="M160 558l-120 111l19 19l121 -59l121 59l19 -19l-120 -111h-40z" />
    <glyph glyph-name="dotaccent" unicode="&#x2d9;" horiz-adv-x="178" 
d="M49.5 583.5q-15.5 15.5 -15.5 39t15.5 39.5t39 16t39.5 -16t16 -39.5t-16 -39t-39.5 -15.5t-39 15.5z" />
    <glyph glyph-name="ring" unicode="&#x2da;" horiz-adv-x="372" 
d="M147 626q0 -53 43 -53q13 0 20 5q15 11 15 42q0 53 -43 53q-13 0 -20 -5q-15 -11 -15 -42zM115.5 560q-25.5 23 -25.5 62.5t27.5 63t70 23.5t68.5 -23.5t26 -62.5t-28 -62.5t-70.5 -23.5t-68 23z" />
    <glyph glyph-name="tilde" unicode="&#x2dc;" horiz-adv-x="397" 
d="M284 631h1l55 47l17 -11l-52 -99l-20 -5q-26 0 -92 26t-83 26h-1l-55 -47l-17 11l52 99l20 5q26 0 92 -26t83 -26z" />
    <glyph glyph-name="endash" unicode="&#x2013;" horiz-adv-x="601" 
d="M63 217l12 39q220 0 391 6l65 3l11 -12l-11 -56q-396 8 -457 8z" />
    <glyph glyph-name="emdash" unicode="&#x2014;" horiz-adv-x="883" 
d="M62 217l12 39q301 0 631 8l110 2l11 -12l-11 -60q-652 11 -742 11z" />
    <glyph glyph-name="quoteleft" unicode="&#x2018;" horiz-adv-x="201" 
d="M57.5 496.5q-10.5 25.5 -10.5 60t29.5 71.5t72.5 60l16 -18q-57 -45 -57 -90t46 -76l3 -20l-56 -26h-20q-13 13 -23.5 38.5z" />
    <glyph glyph-name="quoteright" unicode="&#x2019;" horiz-adv-x="204" 
d="M154.5 649.5q10.5 -25.5 10.5 -60t-29.5 -71.5t-72.5 -60l-16 18q57 45 57 90t-46 76l-3 20l56 26h20q13 -13 23.5 -38.5z" />
    <glyph glyph-name="quotesinglbase" unicode="&#x201a;" horiz-adv-x="211" 
d="M150.5 64.5q10.5 -25.5 10.5 -60t-29.5 -71.5t-72.5 -60l-16 18q57 45 57 90t-46 76l-3 20l56 26h20q13 -13 23.5 -38.5z" />
    <glyph glyph-name="quotedblleft" unicode="&#x201c;" horiz-adv-x="361" 
d="M57.5 496.5q-10.5 25.5 -10.5 60t29.5 71.5t72.5 60l16 -18q-57 -45 -57 -90t46 -76l3 -20l-56 -26h-20q-13 13 -23.5 38.5zM217.5 496.5q-10.5 25.5 -10.5 60t29.5 71.5t72.5 60l16 -18q-57 -45 -57 -90t46 -76l3 -20l-56 -26h-20q-13 13 -23.5 38.5z" />
    <glyph glyph-name="quotedblright" unicode="&#x201d;" horiz-adv-x="364" 
d="M154.5 649.5q10.5 -25.5 10.5 -60t-29.5 -71.5t-72.5 -60l-16 18q57 45 57 90t-46 76l-3 20l56 26h20q13 -13 23.5 -38.5zM314.5 649.5q10.5 -25.5 10.5 -60t-29.5 -71.5t-72.5 -60l-16 18q57 45 57 90t-46 76l-3 20l56 26h20q13 -13 23.5 -38.5z" />
    <glyph glyph-name="quotedblbase" unicode="&#x201e;" horiz-adv-x="371" 
d="M150.5 64.5q10.5 -25.5 10.5 -60t-29.5 -71.5t-72.5 -60l-16 18q57 45 57 90t-46 76l-3 20l56 26h20q13 -13 23.5 -38.5zM310.5 64.5q10.5 -25.5 10.5 -60t-29.5 -71.5t-72.5 -60l-16 18q57 45 57 90t-46 76l-3 20l56 26h20q13 -13 23.5 -38.5z" />
    <glyph glyph-name="dagger" unicode="&#x2020;" horiz-adv-x="473" 
d="M448 420l-11 -72q-14 1 -47 5q-86 11 -123 12q4 -79 15 -177q-15 -158 -27 -389h-41q-12 241 -28 390q12 80 19 176q-57 -3 -165 -15l-14 14l11 72q120 -15 168 -17q0 5 -22 200l92 10l14 -13q-20 -157 -22 -197q67 3 167 17z" />
    <glyph glyph-name="daggerdbl" unicode="&#x2021;" horiz-adv-x="498" 
d="M460 420l-11 -72q-14 1 -47 5q-86 11 -123 12q5 -63 18 -141q-13 -86 -18 -141q67 3 167 17l14 -16l-11 -72q-14 1 -47 5q-86 11 -123 12q6 -101 24 -215l-92 -10l-14 13q14 112 20 212q-57 -3 -165 -15l-14 14l11 72q120 -15 168 -17q-4 71 -16 142q12 69 16 140
q-57 -3 -165 -15l-14 14l11 72q120 -15 168 -17q0 5 -22 200l92 10l14 -13q-20 -157 -22 -197q67 3 167 17z" />
    <glyph glyph-name="bullet" unicode="&#x2022;" horiz-adv-x="335" 
d="M101.5 252.5q-25.5 25.5 -25.5 65t26 66t65 26.5t65.5 -26.5t26.5 -65.5t-26.5 -65t-66 -26t-65 25.5z" />
    <glyph glyph-name="ellipsis" unicode="&#x2026;" horiz-adv-x="634" 
d="M67.5 7.5q-15.5 15.5 -15.5 39t15.5 39.5t39 16t39.5 -16t16 -39.5t-16 -39t-39.5 -15.5t-39 15.5zM277.5 7.5q-15.5 15.5 -15.5 39t15.5 39.5t39 16t39.5 -16t16 -39.5t-16 -39t-39.5 -15.5t-39 15.5zM487.5 7.5q-15.5 15.5 -15.5 39t15.5 39.5t39 16t39.5 -16t16 -39.5
t-16 -39t-39.5 -15.5t-39 15.5z" />
    <glyph glyph-name="perthousand" unicode="&#x2030;" horiz-adv-x="928" 
d="M434.5 35q-37.5 35 -37.5 113.5t43.5 123.5t101.5 45q36 0 65.5 -18t44.5 -47q18 28 49.5 46.5t67.5 18.5q53 0 91.5 -39.5t38.5 -118t-43 -119t-102 -40.5q-38 0 -67.5 16.5t-43.5 41.5q-17 -25 -48 -41.5t-77 -16.5t-83.5 35zM74.5 368q-37.5 35 -37.5 113.5
t43.5 123.5t102.5 45t97.5 -39.5t38.5 -118t-43 -119t-103.5 -40.5t-98 35zM459 164q0 -117 85 -117q32 0 54 11q18 39 18 94q0 118 -84 118q-32 0 -54 -11q-19 -40 -19 -95zM99 497q0 -117 85 -117q32 0 54 11q18 39 18 94q0 118 -84 118q-32 0 -54 -11q-19 -40 -19 -95z
M679 163q0 -116 85 -116q32 0 54 11q18 39 18 94q0 118 -84 118q-32 0 -54 -11q-19 -40 -19 -96zM611 638l12 -11q-242 -307 -458 -600l-64 -15l-12 11q242 307 458 600z" />
    <glyph glyph-name="guilsinglleft" unicode="&#x2039;" horiz-adv-x="309" 
d="M237 9l-207 201v30l207 201l36 -32l-141 -184l141 -184z" />
    <glyph glyph-name="guilsinglright" unicode="&#x203a;" horiz-adv-x="309" 
d="M279 210l-207 -201l-36 32l141 184l-141 184l36 32l207 -201v-30z" />
    <glyph glyph-name="fraction" unicode="&#x2044;" horiz-adv-x="523" 
d="M517 638l12 -11q-242 -307 -458 -600l-64 -15l-12 11q242 307 458 600z" />
    <glyph glyph-name="Euro" unicode="&#x20ac;" horiz-adv-x="609" 
d="M389 638q48 0 89.5 -17.5t58 -33t19.5 -22.5l-51 -87l-22 6l-5 82q-35 12 -95 12t-108 -21q-66 -57 -82 -168l280 4l10 -12l-10 -43h-423l-10 11l11 40h60q21 120 100.5 184.5t177.5 64.5zM409 70q38 0 81.5 11t60.5 20l14 -28q-20 -20 -73.5 -40.5t-113.5 -20.5
q-95 0 -166 56.5t-96 158.5h-74l-11 12l12 39h411l11 -12l-11 -43q-126 2 -247 3q25 -78 79.5 -117t122.5 -39z" />
    <glyph glyph-name="trademark" unicode="&#x2122;" horiz-adv-x="644" 
d="M506 579h-3l-63 -144l-23 -7l-14 4l-68 156h-2v-132l24 -6l-2 -22h-83l-3 21l29 7l-1 166l-28 6v22h88l9 -6l62 -149l67 155h85l2 -22l-30 -6v-166l29 -7l-1 -21h-96l-2 22l24 7v122zM254 650v-59l-21 -3l-17 31h-32v-163l29 -7l-3 -21h-100l-2 21l30 7v163h-35
q-11 -20 -16 -31l-19 3v59h186z" />
    <glyph glyph-name="minus" unicode="&#x2212;" horiz-adv-x="534" 
d="M63 309l12 45l385 2l11 -12l-11 -49q-355 2 -386 2z" />
    </font>
</defs>
</svg>
